Lexend-wght500-wdth125-SPACmax.ufo
<glyph name="numbersign" format="2">
  <advance width="936"/>
  <unicode hex="0023"/>
  <note>
numbersign
</note>
  <outline>
    <contour>
      <point x="305" y="0" type="line"/>
      <point x="205" y="0" type="line"/>
      <point x="325" y="700" type="line"/>
      <point x="425" y="700" type="line"/>
    </contour>
    <contour>
      <point x="856" y="438" type="line"/>
      <point x="128" y="438" type="line"/>
      <point x="128" y="536" type="line"/>
      <point x="856" y="536" type="line"/>
    </contour>
    <contour>
      <point x="641" y="0" type="line"/>
      <point x="541" y="0" type="line"/>
      <point x="661" y="700" type="line"/>
      <point x="761" y="700" type="line"/>
    </contour>
    <contour>
      <point x="819" y="158" type="line"/>
      <point x="90" y="158" type="line"/>
      <point x="90" y="256" type="line"/>
      <point x="819" y="256" type="line"/>
    </contour>
  </outline>
</glyph>
<glyph name="percent" format="2">
  <advance width="1159"/>
  <unicode hex="0025"/>
  <note>
percent
</note>
  <outline>
    <contour>
      <point x="457" y="488" type="qcurve"/>
      <point x="457" y="398"/>
      <point x="354" y="269"/>
      <point x="273" y="269" type="qcurve"/>
      <point x="189" y="269"/>
      <point x="90" y="397"/>
      <point x="90" y="488" type="qcurve"/>
      <point x="90" y="580"/>
      <point x="189" y="709"/>
      <point x="274" y="709" type="qcurve"/>
      <point x="358" y="709"/>
      <point x="457" y="580"/>
    </contour>
    <contour>
      <point x="193" y="488" type="qcurve"/>
      <point x="193" y="432"/>
      <point x="235" y="359"/>
      <point x="274" y="359" type="qcurve"/>
      <point x="314" y="359"/>
      <point x="353" y="434"/>
      <point x="353" y="488" type="qcurve"/>
      <point x="353" y="544"/>
      <point x="313" y="618"/>
      <point x="273" y="618" type="qcurve"/>
      <point x="233" y="618"/>
      <point x="193" y="542"/>
    </contour>
    <contour>
      <point x="1059" y="203" type="qcurve"/>
      <point x="1059" y="113"/>
      <point x="956" y="-16"/>
      <point x="875" y="-16" type="qcurve"/>
      <point x="791" y="-16"/>
      <point x="692" y="112"/>
      <point x="692" y="203" type="qcurve"/>
      <point x="692" y="295"/>
      <point x="791" y="424"/>
      <point x="876" y="424" type="qcurve"/>
      <point x="960" y="424"/>
      <point x="1059" y="295"/>
    </contour>
    <contour>
      <point x="795" y="203" type="qcurve"/>
      <point x="795" y="147"/>
      <point x="837" y="74"/>
      <point x="876" y="74" type="qcurve"/>
      <point x="916" y="74"/>
      <point x="955" y="149"/>
      <point x="955" y="203" type="qcurve"/>
      <point x="955" y="259"/>
      <point x="915" y="333"/>
      <point x="875" y="333" type="qcurve"/>
      <point x="835" y="333"/>
      <point x="795" y="257"/>
    </contour>
    <contour>
      <point x="370" y="0" type="line"/>
      <point x="269" y="0" type="line"/>
      <point x="505" y="337" type="line"/>
      <point x="751" y="700" type="line"/>
      <point x="859" y="700" type="line"/>
      <point x="570" y="296" type="line"/>
    </contour>
  </outline>
</glyph>
<glyph name="ampersand" format="2">
  <advance width="1022"/>
  <unicode hex="0026"/>
  <note>
ampersand
</note>
  <outline>
    <contour>
      <point x="451" y="-16" type="qcurve" smooth="yes"/>
      <point x="288" y="-16"/>
      <point x="135" y="120"/>
      <point x="135" y="204" type="qcurve" smooth="yes"/>
      <point x="135" y="274"/>
      <point x="232" y="391"/>
      <point x="331" y="429" type="qcurve"/>
      <point x="400" y="357" type="line"/>
      <point x="322" y="337"/>
      <point x="264" y="266"/>
      <point x="264" y="223" type="qcurve" smooth="yes"/>
      <point x="264" y="174"/>
      <point x="351" y="95"/>
      <point x="458" y="95" type="qcurve" smooth="yes"/>
      <point x="536" y="95"/>
      <point x="720" y="194"/>
      <point x="720" y="329" type="qcurve"/>
      <point x="832" y="329" type="line"/>
      <point x="832" y="149"/>
      <point x="573" y="-16"/>
    </contour>
    <contour>
      <point x="897" y="0" type="line"/>
      <point x="752" y="0" type="line"/>
      <point x="675" y="88" type="line"/>
      <point x="645" y="116" type="line"/>
      <point x="442" y="300" type="line" smooth="yes"/>
      <point x="393" y="344"/>
      <point x="252" y="471"/>
      <point x="252" y="539" type="qcurve" smooth="yes"/>
      <point x="252" y="598"/>
      <point x="380" y="714"/>
      <point x="496" y="714" type="qcurve" smooth="yes"/>
      <point x="602" y="714"/>
      <point x="742" y="630"/>
      <point x="779" y="571" type="qcurve"/>
      <point x="706" y="501" type="line"/>
      <point x="668" y="561"/>
      <point x="559" y="614"/>
      <point x="503" y="614" type="qcurve" smooth="yes"/>
      <point x="437" y="614"/>
      <point x="383" y="570"/>
      <point x="383" y="547" type="qcurve" smooth="yes"/>
      <point x="383" y="514"/>
      <point x="450" y="448"/>
      <point x="480" y="421" type="qcurve" smooth="yes"/>
      <point x="740" y="183" type="line"/>
      <point x="759" y="156" type="line"/>
    </contour>
  </outline>
</glyph>
<glyph name="parenleft" format="2">
  <advance width="681"/>
  <unicode hex="0028"/>
  <note>
parenleft
</note>
  <outline>
    <contour>
      <point x="120" y="258" type="qcurve" smooth="yes"/>
      <point x="120" y="390"/>
      <point x="313" y="623"/>
      <point x="511" y="702" type="qcurve"/>
      <point x="566" y="625" type="line"/>
      <point x="397" y="550"/>
      <point x="237" y="365"/>
      <point x="237" y="258" type="qcurve" smooth="yes"/>
      <point x="237" y="151"/>
      <point x="397" y="-34"/>
      <point x="566" y="-109" type="qcurve"/>
      <point x="510" y="-186" type="line"/>
      <point x="312" y="-107"/>
      <point x="120" y="126"/>
    </contour>
  </outline>
</glyph>
<glyph name="comma" format="2">
  <advance width="506"/>
  <unicode hex="002C"/>
  <note>
comma
</note>
  <outline>
    <contour>
      <point x="221" y="147" type="qcurve"/>
      <point x="272" y="147"/>
      <point x="356" y="64"/>
      <point x="356" y="5" type="qcurve" smooth="yes"/>
      <point x="356" y="-55"/>
      <point x="239" y="-174"/>
      <point x="173" y="-203" type="qcurve"/>
      <point x="125" y="-148" type="line"/>
      <point x="173" y="-120"/>
      <point x="234" y="-67"/>
      <point x="234" y="-45" type="qcurve" smooth="yes"/>
      <point x="234" y="-27"/>
      <point x="208" y="-5"/>
      <point x="191" y="5" type="qcurve" smooth="yes"/>
      <point x="170" y="17"/>
      <point x="131" y="47"/>
      <point x="131" y="75" type="qcurve"/>
      <point x="131" y="112"/>
      <point x="184" y="147"/>
    </contour>
  </outline>
</glyph>
<glyph name="hyphen" format="2">
  <advance width="608"/>
  <unicode hex="002D"/>
  <note>
hyphen
</note>
  <outline>
    <contour>
      <point x="483" y="241" type="line"/>
      <point x="125" y="241" type="line"/>
      <point x="125" y="337" type="line"/>
      <point x="483" y="337" type="line"/>
    </contour>
  </outline>
</glyph>
<glyph name="slash" format="2">
  <advance width="796"/>
  <unicode hex="002F"/>
  <note>
slash
</note>
  <outline>
    <contour>
      <point x="245" y="-132" type="line"/>
      <point x="110" y="-132" type="line"/>
      <point x="522" y="700" type="line"/>
      <point x="656" y="700" type="line"/>
    </contour>
  </outline>
</glyph>
<glyph name="zero" format="2">
  <advance width="825"/>
  <unicode hex="0030"/>
  <outline>
    <contour>
      <point x="725" y="350" type="qcurve"/>
      <point x="725" y="194"/>
      <point x="567" y="-10"/>
      <point x="417" y="-10" type="qcurve"/>
      <point x="263" y="-10"/>
      <point x="100" y="194"/>
      <point x="100" y="350" type="qcurve"/>
      <point x="100" y="506"/>
      <point x="263" y="710"/>
      <point x="417" y="710" type="qcurve"/>
      <point x="567" y="710"/>
      <point x="725" y="506"/>
    </contour>
    <contour>
      <point x="204" y="350" type="qcurve"/>
      <point x="204" y="225"/>
      <point x="317" y="88"/>
      <point x="417" y="88" type="qcurve"/>
      <point x="513" y="88"/>
      <point x="620" y="225"/>
      <point x="620" y="350" type="qcurve"/>
      <point x="620" y="475"/>
      <point x="513" y="612"/>
      <point x="417" y="612" type="qcurve"/>
      <point x="317" y="612"/>
      <point x="204" y="475"/>
    </contour>
  </outline>
</glyph>
<glyph name="two" format="2">
  <advance width="775"/>
  <unicode hex="0032"/>
  <outline>
    <contour>
      <point x="231" y="104" type="line"/>
      <point x="665" y="104" type="line"/>
      <point x="665" y="0" type="line"/>
      <point x="152" y="0" type="line"/>
      <point x="119" y="82" type="line"/>
      <point x="360" y="291" type="line" smooth="yes"/>
      <point x="420" y="348"/>
      <point x="532" y="458"/>
      <point x="532" y="509" type="qcurve" smooth="yes"/>
      <point x="532" y="556"/>
      <point x="465" y="610"/>
      <point x="401" y="610" type="qcurve" smooth="yes"/>
      <point x="343" y="610"/>
      <point x="231" y="551"/>
      <point x="188" y="482" type="qcurve"/>
      <point x="110" y="538" type="line"/>
      <point x="156" y="613"/>
      <point x="309" y="710"/>
      <point x="414" y="710" type="qcurve" smooth="yes"/>
      <point x="521" y="710"/>
      <point x="643" y="604"/>
      <point x="643" y="522" type="qcurve" smooth="yes"/>
      <point x="643" y="429"/>
      <point x="489" y="281"/>
      <point x="420" y="218" type="qcurve" smooth="yes"/>
      <point x="246" y="60" type="line"/>
    </contour>
  </outline>
</glyph>
<glyph name="three" format="2">
  <advance width="764"/>
  <unicode hex="0033"/>
  <outline>
    <contour>
      <point x="90" y="138" type="qcurve"/>
      <point x="174" y="205" type="line"/>
      <point x="202" y="167"/>
      <point x="297" y="85"/>
      <point x="369" y="85" type="qcurve" smooth="yes"/>
      <point x="436" y="85"/>
      <point x="559" y="143"/>
      <point x="559" y="218" type="qcurve"/>
      <point x="559" y="280"/>
      <point x="455" y="332"/>
      <point x="404" y="332" type="qcurve" smooth="yes"/>
      <point x="372" y="332"/>
      <point x="326" y="323"/>
      <point x="308" y="317" type="qcurve"/>
      <point x="270" y="383" type="line"/>
      <point x="536" y="631" type="line"/>
      <point x="527" y="600" type="line"/>
      <point x="129" y="600" type="line"/>
      <point x="129" y="700" type="line"/>
      <point x="630" y="700" type="line"/>
      <point x="650" y="630" type="line"/>
      <point x="371" y="366" type="line"/>
      <point x="346" y="422" type="line"/>
      <point x="359" y="426"/>
      <point x="412" y="431"/>
      <point x="437" y="431" type="qcurve"/>
      <point x="526" y="431"/>
      <point x="664" y="314"/>
      <point x="664" y="227" type="qcurve"/>
      <point x="664" y="119"/>
      <point x="493" y="-10"/>
      <point x="371" y="-10" type="qcurve"/>
      <point x="272" y="-10"/>
      <point x="136" y="76"/>
    </contour>
  </outline>
</glyph>
<glyph name="six" format="2">
  <advance width="792"/>
  <unicode hex="0036"/>
  <outline>
    <contour>
      <point x="682" y="260" type="qcurve" smooth="yes"/>
      <point x="682" y="154"/>
      <point x="526" y="0"/>
      <point x="393" y="0" type="qcurve"/>
      <point x="277" y="0"/>
      <point x="110" y="137"/>
      <point x="110" y="247" type="qcurve" smooth="yes"/>
      <point x="110" y="334"/>
      <point x="207" y="497"/>
      <point x="275" y="571" type="qcurve" smooth="yes"/>
      <point x="405" y="712" type="line"/>
      <point x="533" y="712" type="line"/>
      <point x="537" y="702" type="line"/>
      <point x="357" y="517" type="line" smooth="yes"/>
      <point x="301" y="460"/>
      <point x="212" y="317"/>
      <point x="202" y="260" type="qcurve"/>
      <point x="138" y="333" type="line"/>
      <point x="181" y="393"/>
      <point x="323" y="489"/>
      <point x="428" y="489" type="qcurve" smooth="yes"/>
      <point x="532" y="489"/>
      <point x="682" y="359"/>
    </contour>
    <contour>
      <point x="214" y="248" type="qcurve" smooth="yes"/>
      <point x="214" y="190"/>
      <point x="309" y="100"/>
      <point x="393" y="100" type="qcurve"/>
      <point x="467" y="100"/>
      <point x="578" y="178"/>
      <point x="578" y="247" type="qcurve" smooth="yes"/>
      <point x="578" y="298"/>
      <point x="476" y="389"/>
      <point x="395" y="389" type="qcurve" smooth="yes"/>
      <point x="311" y="389"/>
      <point x="214" y="302"/>
    </contour>
  </outline>
</glyph>
<glyph name="eight" format="2">
  <advance width="813"/>
  <unicode hex="0038"/>
  <outline>
    <contour>
      <point x="660" y="504" type="qcurve" smooth="yes"/>
      <point x="660" y="435"/>
      <point x="594" y="360"/>
      <point x="562" y="344" type="qcurve"/>
      <point x="559" y="381" type="line"/>
      <point x="618" y="358"/>
      <point x="693" y="270"/>
      <point x="693" y="213" type="qcurve" smooth="yes"/>
      <point x="693" y="124"/>
      <point x="533" y="-3"/>
      <point x="406" y="-3" type="qcurve"/>
      <point x="280" y="-3"/>
      <point x="120" y="124"/>
      <point x="120" y="213" type="qcurve" smooth="yes"/>
      <point x="120" y="287"/>
      <point x="206" y="363"/>
      <point x="255" y="385" type="qcurve"/>
      <point x="249" y="344" type="line"/>
      <point x="212" y="361"/>
      <point x="151" y="441"/>
      <point x="151" y="504" type="qcurve" smooth="yes"/>
      <point x="151" y="584"/>
      <point x="299" y="700"/>
      <point x="406" y="700" type="qcurve"/>
      <point x="513" y="700"/>
      <point x="660" y="584"/>
    </contour>
    <contour>
      <point x="406" y="600" type="qcurve"/>
      <point x="341" y="600"/>
      <point x="255" y="548"/>
      <point x="255" y="511" type="qcurve"/>
      <point x="255" y="466"/>
      <point x="343" y="409"/>
      <point x="406" y="409" type="qcurve" smooth="yes"/>
      <point x="468" y="409"/>
      <point x="555" y="466"/>
      <point x="555" y="511" type="qcurve"/>
      <point x="555" y="548"/>
      <point x="470" y="600"/>
    </contour>
    <contour>
      <point x="222" y="211" type="qcurve"/>
      <point x="222" y="162"/>
      <point x="328" y="97"/>
      <point x="406" y="97" type="qcurve"/>
      <point x="484" y="97"/>
      <point x="589" y="162"/>
      <point x="589" y="211" type="qcurve"/>
      <point x="589" y="260"/>
      <point x="482" y="319"/>
      <point x="406" y="319" type="qcurve" smooth="yes"/>
      <point x="330" y="319"/>
      <point x="222" y="260"/>
    </contour>
  </outline>
</glyph>
<glyph name="nine" format="2">
  <advance width="776"/>
  <unicode hex="0039"/>
  <outline>
    <contour>
      <point x="110" y="462" type="qcurve" smooth="yes"/>
      <point x="110" y="571"/>
      <point x="276" y="712"/>
      <point x="394" y="712" type="qcurve"/>
      <point x="504" y="712"/>
      <point x="666" y="577"/>
      <point x="666" y="478" type="qcurve" smooth="yes"/>
      <point x="666" y="414"/>
      <point x="578" y="250"/>
      <point x="532" y="174" type="qcurve" smooth="yes"/>
      <point x="429" y="0" type="line"/>
      <point x="319" y="0" type="line"/>
      <point x="315" y="10" type="line"/>
      <point x="591" y="452" type="line"/>
      <point x="585" y="379" type="line"/>
      <point x="535" y="322"/>
      <point x="422" y="243"/>
      <point x="344" y="243" type="qcurve"/>
      <point x="244" y="243"/>
      <point x="110" y="374"/>
    </contour>
    <contour>
      <point x="561" y="474" type="qcurve" smooth="yes"/>
      <point x="561" y="528"/>
      <point x="466" y="611"/>
      <point x="383" y="611" type="qcurve"/>
      <point x="316" y="611"/>
      <point x="215" y="539"/>
      <point x="215" y="475" type="qcurve" smooth="yes"/>
      <point x="215" y="427"/>
      <point x="307" y="344"/>
      <point x="381" y="344" type="qcurve" smooth="yes"/>
      <point x="465" y="344"/>
      <point x="561" y="424"/>
    </contour>
  </outline>
</glyph>
<glyph name="less" format="2">
  <advance width="769"/>
  <unicode hex="003C"/>
  <note>
less
</note>
  <outline>
    <contour>
      <point x="140" y="208" type="line"/>
      <point x="140" y="295" type="line"/>
      <point x="629" y="89" type="line"/>
      <point x="581" y="4" type="line"/>
      <point x="90" y="211" type="line"/>
      <point x="90" y="292" type="line"/>
      <point x="581" y="499" type="line"/>
      <point x="629" y="414" type="line"/>
    </contour>
  </outline>
</glyph>
<glyph name="question" format="2">
  <advance width="829"/>
  <unicode hex="003F"/>
  <note>
question
</note>
  <outline>
    <contour>
      <point x="361" y="211" type="line"/>
      <point x="335" y="367" type="line"/>
      <point x="451" y="389"/>
      <point x="576" y="458"/>
      <point x="576" y="511" type="qcurve" smooth="yes"/>
      <point x="576" y="555"/>
      <point x="484" y="597"/>
      <point x="430" y="597" type="qcurve" smooth="yes"/>
      <point x="351" y="597"/>
      <point x="235" y="540"/>
      <point x="195" y="492" type="qcurve"/>
      <point x="120" y="570" type="line"/>
      <point x="174" y="633"/>
      <point x="335" y="709"/>
      <point x="438" y="709" type="qcurve" smooth="yes"/>
      <point x="558" y="709"/>
      <point x="709" y="596"/>
      <point x="709" y="511" type="qcurve" smooth="yes"/>
      <point x="709" y="433"/>
      <point x="539" y="317"/>
      <point x="438" y="295" type="qcurve"/>
      <point x="468" y="314" type="line"/>
      <point x="448" y="211" type="line"/>
    </contour>
    <contour>
      <point x="516" y="64" type="qcurve" smooth="yes"/>
      <point x="516" y="36"/>
      <point x="465" y="-11"/>
      <point x="412" y="-11" type="qcurve" smooth="yes"/>
      <point x="359" y="-11"/>
      <point x="308" y="30"/>
      <point x="308" y="64" type="qcurve" smooth="yes"/>
      <point x="308" y="92"/>
      <point x="359" y="139"/>
      <point x="412" y="139" type="qcurve" smooth="yes"/>
      <point x="465" y="139"/>
      <point x="516" y="98"/>
    </contour>
  </outline>
</glyph>
<glyph name="B" format="2">
  <advance width="995"/>
  <unicode hex="0042"/>
  <note>
B
</note>
  <anchor x="498" y="0" name="bottom"/>
  <anchor x="498" y="700" name="top"/>
  <outline>
    <contour>
      <point x="182" y="700" type="line"/>
      <point x="564" y="700" type="line"/>
      <point x="695" y="700"/>
      <point x="830" y="609"/>
      <point x="830" y="524" type="qcurve"/>
      <point x="830" y="456"/>
      <point x="715" y="364"/>
      <point x="605" y="363" type="qcurve"/>
      <point x="606" y="399" type="line"/>
      <point x="688" y="399"/>
      <point x="867" y="316"/>
      <point x="867" y="206" type="qcurve"/>
      <point x="867" y="84"/>
      <point x="688" y="0"/>
      <point x="590" y="0" type="qcurve"/>
      <point x="182" y="0" type="line"/>
    </contour>
    <contour>
      <point x="719" y="508" type="qcurve"/>
      <point x="719" y="556"/>
      <point x="634" y="596"/>
      <point x="572" y="596" type="qcurve"/>
      <point x="280" y="596" type="line"/>
      <point x="290" y="631" type="line"/>
      <point x="290" y="399" type="line"/>
      <point x="281" y="416" type="line"/>
      <point x="584" y="416" type="line"/>
      <point x="638" y="417"/>
      <point x="719" y="465"/>
    </contour>
    <contour>
      <point x="757" y="208" type="qcurve"/>
      <point x="757" y="267"/>
      <point x="646" y="311"/>
      <point x="589" y="311" type="qcurve"/>
      <point x="285" y="311" type="line"/>
      <point x="290" y="334" type="line"/>
      <point x="290" y="74" type="line"/>
      <point x="284" y="104" type="line"/>
      <point x="594" y="104" type="line"/>
      <point x="665" y="104"/>
      <point x="757" y="155"/>
    </contour>
  </outline>
</glyph>
<glyph name="C" format="2">
  <advance width="981"/>
  <unicode hex="0043"/>
  <note>
C
</note>
  <outline>
    <contour>
      <point x="798" y="194" type="qcurve"/>
      <point x="850" y="104" type="line"/>
      <point x="807" y="69"/>
      <point x="636" y="-10"/>
      <point x="532" y="-10" type="qcurve" smooth="yes"/>
      <point x="363" y="-10"/>
      <point x="128" y="187"/>
      <point x="128" y="350" type="qcurve" smooth="yes"/>
      <point x="128" y="504"/>
      <point x="370" y="706"/>
      <point x="532" y="706" type="qcurve" smooth="yes"/>
      <point x="633" y="706"/>
      <point x="809" y="632"/>
      <point x="855" y="589" type="qcurve"/>
      <point x="791" y="498" type="line"/>
      <point x="737" y="542"/>
      <point x="605" y="600"/>
      <point x="522" y="600" type="qcurve" smooth="yes"/>
      <point x="416" y="600"/>
      <point x="238" y="465"/>
      <point x="238" y="350" type="qcurve" smooth="yes"/>
      <point x="238" y="225"/>
      <point x="424" y="95"/>
      <point x="540" y="95" type="qcurve" smooth="yes"/>
      <point x="629" y="95"/>
      <point x="753" y="161"/>
    </contour>
  </outline>
</glyph>
<glyph name="F" format="2">
  <advance width="896"/>
  <unicode hex="0046"/>
  <note>
F
</note>
  <outline>
    <contour>
      <point x="182" y="0" type="line"/>
      <point x="182" y="700" type="line"/>
      <point x="290" y="700" type="line"/>
      <point x="290" y="0" type="line"/>
    </contour>
    <contour>
      <point x="711" y="288" type="line"/>
      <point x="218" y="288" type="line"/>
      <point x="218" y="392" type="line"/>
      <point x="711" y="392" type="line"/>
    </contour>
    <contour>
      <point x="756" y="596" type="line"/>
      <point x="232" y="596" type="line"/>
      <point x="232" y="700" type="line"/>
      <point x="756" y="700" type="line"/>
    </contour>
  </outline>
</glyph>
<glyph name="H" format="2">
  <advance width="1069"/>
  <unicode hex="0048"/>
  <note>
H
</note>
  <outline>
    <contour>
      <point x="182" y="700" type="line"/>
      <point x="290" y="700" type="line"/>
      <point x="290" y="0" type="line"/>
      <point x="182" y="0" type="line"/>
    </contour>
    <contour>
      <point x="779" y="700" type="line"/>
      <point x="887" y="700" type="line"/>
      <point x="887" y="0" type="line"/>
      <point x="779" y="0" type="line"/>
    </contour>
    <contour>
      <point x="229" y="293" type="line"/>
      <point x="230" y="397" type="line"/>
      <point x="827" y="397" type="line"/>
      <point x="827" y="293" type="line"/>
    </contour>
  </outline>
</glyph>
<glyph name="J" format="2">
  <advance width="881"/>
  <unicode hex="004A"/>
  <note>
J
</note>
  <outline>
    <contour>
      <point x="401" y="-10" type="qcurve"/>
      <point x="273" y="-10"/>
      <point x="141" y="119"/>
      <point x="125" y="147" type="qcurve"/>
      <point x="197" y="223" type="line"/>
      <point x="234" y="173"/>
      <point x="322" y="90"/>
      <point x="401" y="90" type="qcurve" smooth="yes"/>
      <point x="489" y="90"/>
      <point x="591" y="203"/>
      <point x="591" y="283" type="qcurve"/>
      <point x="591" y="700" type="line"/>
      <point x="699" y="700" type="line"/>
      <point x="699" y="273" type="line"/>
      <point x="699" y="165"/>
      <point x="544" y="-10"/>
    </contour>
    <contour>
      <point x="831" y="700" type="line"/>
      <point x="831" y="593" type="line"/>
      <point x="417" y="593" type="line"/>
      <point x="417" y="700" type="line"/>
    </contour>
  </outline>
</glyph>
<glyph name="L" format="2">
  <advance width="898"/>
  <unicode hex="004C"/>
  <note>
L
</note>
  <anchor x="429" y="0" name="bottom"/>
  <anchor x="429" y="350" name="center"/>
  <anchor x="236" y="700" name="top"/>
  <anchor x="838" y="700" name="topright"/>
  <outline>
    <contour>
      <point x="242" y="104" type="line"/>
      <point x="758" y="104" type="line"/>
      <point x="758" y="0" type="line"/>
      <point x="182" y="0" type="line"/>
      <point x="182" y="700" type="line"/>
      <point x="290" y="700" type="line"/>
      <point x="290" y="68" type="line"/>
    </contour>
  </outline>
</glyph>
<glyph name="M" format="2">
  <advance width="1174"/>
  <unicode hex="004D"/>
  <note>
M
</note>
  <anchor x="596" y="0" name="bottom"/>
  <anchor x="596" y="700" name="top"/>
  <outline>
    <contour>
      <point x="182" y="700" type="line"/>
      <point x="288" y="700" type="line"/>
      <point x="624" y="286" type="line"/>
      <point x="553" y="286" type="line"/>
      <point x="892" y="700" type="line"/>
      <point x="992" y="700" type="line"/>
      <point x="992" y="0" type="line"/>
      <point x="884" y="0" type="line"/>
      <point x="884" y="287" type="line"/>
      <point x="884" y="377"/>
      <point x="893" y="521"/>
      <point x="904" y="592" type="qcurve"/>
      <point x="918" y="563" type="line"/>
      <point x="618" y="201" type="line"/>
      <point x="552" y="201" type="line"/>
      <point x="259" y="561" type="line"/>
      <point x="270" y="592" type="line"/>
      <point x="281" y="525"/>
      <point x="290" y="384"/>
      <point x="290" y="287" type="qcurve"/>
      <point x="290" y="0" type="line"/>
      <point x="182" y="0" type="line"/>
    </contour>
  </outline>
</glyph>
<glyph name="N" format="2">
  <advance width="1121"/>
  <unicode hex="004E"/>
  <note>
N
</note>
  <anchor x="561" y="0" name="bottom"/>
  <anchor x="561" y="700" name="top"/>
  <outline>
    <contour>
      <point x="829" y="470" type="qcurve"/>
      <point x="829" y="700" type="line"/>
      <point x="937" y="700" type="line"/>
      <point x="937" y="0" type="line"/>
      <point x="828" y="0" type="line"/>
      <point x="257" y="562" type="line"/>
      <point x="278" y="576" type="line"/>
      <point x="284" y="512"/>
      <point x="288" y="336"/>
      <point x="288" y="291" type="qcurve"/>
      <point x="288" y="0" type="line"/>
      <point x="180" y="0" type="line"/>
      <point x="180" y="700" type="line"/>
      <point x="287" y="700" type="line"/>
      <point x="855" y="127" type="line"/>
      <point x="839" y="118" type="line"/>
      <point x="829" y="180"/>
      <point x="829" y="360"/>
    </contour>
  </outline>
</glyph>
<glyph name="O" format="2">
  <advance width="1102"/>
  <unicode hex="004F"/>
  <note>
O
</note>
  <outline>
    <contour>
      <point x="551" y="710" type="qcurve"/>
      <point x="735" y="710"/>
      <point x="974" y="501"/>
      <point x="974" y="350" type="qcurve"/>
      <point x="974" y="199"/>
      <point x="735" y="-10"/>
      <point x="551" y="-10" type="qcurve"/>
      <point x="366" y="-10"/>
      <point x="128" y="199"/>
      <point x="128" y="350" type="qcurve"/>
      <point x="128" y="501"/>
      <point x="366" y="710"/>
    </contour>
    <contour>
      <point x="551" y="95" type="qcurve" smooth="yes"/>
      <point x="688" y="95"/>
      <point x="864" y="242"/>
      <point x="864" y="350" type="qcurve"/>
      <point x="864" y="458"/>
      <point x="688" y="605"/>
      <point x="551" y="605" type="qcurve" smooth="yes"/>
      <point x="412" y="605"/>
      <point x="238" y="459"/>
      <point x="238" y="350" type="qcurve"/>
      <point x="238" y="241"/>
      <point x="412" y="95"/>
    </contour>
  </outline>
</glyph>
<glyph name="Q" format="2">
  <advance width="1102"/>
  <unicode hex="0051"/>
  <note>
Q
</note>
  <outline>
    <contour>
      <point x="551" y="710" type="qcurve"/>
      <point x="735" y="710"/>
      <point x="974" y="501"/>
      <point x="974" y="350" type="qcurve"/>
      <point x="974" y="199"/>
      <point x="735" y="-10"/>
      <point x="551" y="-10" type="qcurve"/>
      <point x="366" y="-10"/>
      <point x="128" y="199"/>
      <point x="128" y="350" type="qcurve"/>
      <point x="128" y="501"/>
      <point x="366" y="710"/>
    </contour>
    <contour>
      <point x="551" y="95" type="qcurve" smooth="yes"/>
      <point x="688" y="95"/>
      <point x="864" y="242"/>
      <point x="864" y="350" type="qcurve"/>
      <point x="864" y="458"/>
      <point x="688" y="605"/>
      <point x="551" y="605" type="qcurve" smooth="yes"/>
      <point x="412" y="605"/>
      <point x="238" y="459"/>
      <point x="238" y="350" type="qcurve"/>
      <point x="238" y="241"/>
      <point x="412" y="95"/>
    </contour>
    <contour>
      <point x="620" y="286" type="line"/>
      <point x="882" y="-58" type="line"/>
      <point x="796" y="-110" type="line"/>
      <point x="531" y="237" type="line"/>
    </contour>
  </outline>
</glyph>
<glyph name="T" format="2">
  <advance width="846"/>
  <unicode hex="0054"/>
  <note>
T
</note>
  <anchor x="423" y="0" name="bottom"/>
  <anchor x="423" y="350" name="center"/>
  <anchor x="423" y="700" name="top"/>
  <outline>
    <contour>
      <point x="474" y="0" type="line"/>
      <point x="366" y="0" type="line"/>
      <point x="366" y="651" type="line"/>
      <point x="474" y="651" type="line"/>
    </contour>
    <contour>
      <point x="746" y="596" type="line"/>
      <point x="100" y="596" type="line"/>
      <point x="100" y="700" type="line"/>
      <point x="746" y="700" type="line"/>
    </contour>
  </outline>
</glyph>
<glyph name="U" format="2">
  <advance width="1044"/>
  <unicode hex="0055"/>
  <note>
U
</note>
  <anchor x="522" y="0" name="bottom"/>
  <anchor x="940" y="10" name="ogonek"/>
  <anchor x="522" y="700" name="top"/>
  <anchor x="949" y="700" name="topright"/>
  <outline>
    <contour>
      <point x="771" y="701" type="line"/>
      <point x="874" y="701" type="line"/>
      <point x="874" y="335" type="line"/>
      <point x="874" y="188"/>
      <point x="681" y="-6"/>
      <point x="522" y="-6" type="qcurve"/>
      <point x="363" y="-6"/>
      <point x="170" y="188"/>
      <point x="170" y="335" type="qcurve"/>
      <point x="170" y="701" type="line"/>
      <point x="278" y="701" type="line"/>
      <point x="278" y="339" type="line"/>
      <point x="278" y="235"/>
      <point x="420" y="99"/>
      <point x="522" y="99" type="qcurve"/>
      <point x="629" y="99"/>
      <point x="771" y="235"/>
      <point x="771" y="339" type="qcurve"/>
    </contour>
  </outline>
</glyph>
<glyph name="X" format="2">
  <advance width="962"/>
  <unicode hex="0058"/>
  <note>
X
</note>
  <anchor x="481" y="0" name="bottom"/>
  <anchor x="481" y="700" name="top"/>
  <outline>
    <contour>
      <point x="717" y="700" type="line"/>
      <point x="859" y="700" type="line"/>
      <point x="535" y="325" type="line"/>
      <point x="476" y="401" type="line"/>
    </contour>
    <contour>
      <point x="97" y="700" type="line"/>
      <point x="244" y="700" type="line"/>
      <point x="511" y="397" type="line"/>
      <point x="870" y="0" type="line"/>
      <point x="722" y="0" type="line"/>
      <point x="444" y="316" type="line"/>
    </contour>
    <contour>
      <point x="233" y="0" type="line"/>
      <point x="92" y="0" type="line"/>
      <point x="425" y="381" type="line"/>
      <point x="486" y="302" type="line"/>
    </contour>
  </outline>
</glyph>
<glyph name="Y" format="2">
  <advance width="960"/>
  <unicode hex="0059"/>
  <note>
Y
</note>
  <anchor x="480" y="0" name="bottom"/>
  <anchor x="480" y="700" name="top"/>
  <anchor x="8" y="700" name="topleft"/>
  <outline>
    <contour>
      <point x="746" y="700" type="line"/>
      <point x="880" y="700" type="line"/>
      <point x="539" y="263" type="line"/>
      <point x="544" y="321" type="line"/>
      <point x="544" y="0" type="line"/>
      <point x="436" y="0" type="line"/>
      <point x="436" y="313" type="line"/>
      <point x="456" y="236" type="line"/>
      <point x="80" y="700" type="line"/>
      <point x="230" y="700" type="line"/>
      <point x="503" y="347" type="line"/>
      <point x="480" y="347" type="line"/>
    </contour>
  </outline>
</glyph>
<glyph name="Z" format="2">
  <advance width="884"/>
  <unicode hex="005A"/>
  <note>
Z
</note>
  <anchor x="442" y="0" name="bottom"/>
  <anchor x="442" y="700" name="top"/>
  <outline>
    <contour>
      <point x="126" y="700" type="line"/>
      <point x="773" y="700" type="line"/>
      <point x="773" y="622" type="line"/>
      <point x="258" y="87" type="line"/>
      <point x="220" y="106" type="line"/>
      <point x="784" y="106" type="line"/>
      <point x="784" y="0" type="line"/>
      <point x="100" y="0" type="line"/>
      <point x="100" y="79" type="line"/>
      <point x="615" y="613" type="line"/>
      <point x="654" y="594" type="line"/>
      <point x="126" y="594" type="line"/>
    </contour>
  </outline>
</glyph>
<glyph name="bracketleft" format="2">
  <advance width="647"/>
  <unicode hex="005B"/>
  <note>
bracketleft
</note>
  <outline>
    <contour>
      <point x="547" y="-190" type="line"/>
      <point x="150" y="-190" type="line"/>
      <point x="150" y="700" type="line"/>
      <point x="547" y="700" type="line"/>
      <point x="547" y="606" type="line"/>
      <point x="257" y="606" type="line"/>
      <point x="263" y="614" type="line"/>
      <point x="263" y="-108" type="line"/>
      <point x="253" y="-96" type="line"/>
      <point x="547" y="-96" type="line"/>
    </contour>
  </outline>
</glyph>
<glyph name="backslash" format="2">
  <advance width="798"/>
  <unicode hex="005C"/>
  <note>
backslash
</note>
  <outline>
    <contour>
      <point x="663" y="-107" type="line"/>
      <point x="533" y="-107" type="line"/>
      <point x="135" y="700" type="line"/>
      <point x="263" y="700" type="line"/>
    </contour>
  </outline>
</glyph>
<glyph name="asciicircum" format="2">
  <advance width="858"/>
  <unicode hex="005E"/>
  <note>
asciicircum
</note>
  <outline>
    <contour>
      <point x="219" y="368" type="line"/>
      <point x="90" y="368" type="line"/>
      <point x="371" y="727" type="line"/>
      <point x="487" y="727" type="line"/>
      <point x="768" y="368" type="line"/>
      <point x="637" y="368" type="line"/>
      <point x="412" y="653" type="line"/>
      <point x="448" y="656" type="line"/>
    </contour>
  </outline>
</glyph>
<glyph name="underscore" format="2">
  <advance width="904"/>
  <unicode hex="005F"/>
  <note>
underscore
</note>
  <outline>
    <contour>
      <point x="779" y="-160" type="line"/>
      <point x="125" y="-160" type="line"/>
      <point x="125" y="-67" type="line"/>
      <point x="779" y="-67" type="line"/>
    </contour>
  </outline>
</glyph>
<glyph name="c" format="2">
  <advance width="880"/>
  <unicode hex="0063"/>
  <note>
c
</note>
  <anchor x="435" y="0" name="bottom"/>
  <anchor x="455" y="525" name="top"/>
  <outline>
    <contour>
      <point x="455" y="443" type="qcurve" smooth="yes"/>
      <point x="358" y="443"/>
      <point x="238" y="341"/>
      <point x="238" y="263" type="qcurve" smooth="yes"/>
      <point x="238" y="185"/>
      <point x="365" y="83"/>
      <point x="456" y="83" type="qcurve"/>
      <point x="537" y="83"/>
      <point x="652" y="131"/>
      <point x="694" y="156" type="qcurve"/>
      <point x="750" y="76" type="line"/>
      <point x="694" y="42"/>
      <point x="549" y="-10"/>
      <point x="455" y="-10" type="qcurve"/>
      <point x="317" y="-10"/>
      <point x="130" y="147"/>
      <point x="130" y="263" type="qcurve" smooth="yes"/>
      <point x="130" y="379"/>
      <point x="317" y="536"/>
      <point x="455" y="536" type="qcurve"/>
      <point x="547" y="536"/>
      <point x="705" y="482"/>
      <point x="750" y="434" type="qcurve"/>
      <point x="692" y="350" type="line"/>
      <point x="651" y="389"/>
      <point x="519" y="443"/>
    </contour>
  </outline>
</glyph>
<glyph name="d" format="2">
  <advance width="964"/>
  <unicode hex="0064"/>
  <note>
d
</note>
  <anchor x="492" y="0" name="bottom"/>
  <anchor x="721" y="616" name="center"/>
  <anchor x="492" y="740" name="top"/>
  <anchor x="964" y="525" name="topright"/>
  <outline>
    <contour>
      <point x="681" y="740" type="line"/>
      <point x="784" y="740" type="line"/>
      <point x="784" y="0" type="line"/>
      <point x="681" y="0" type="line"/>
      <point x="681" y="145" type="line"/>
      <point x="701" y="137" type="line"/>
      <point x="701" y="91"/>
      <point x="538" y="-10"/>
      <point x="432" y="-10" type="qcurve"/>
      <point x="289" y="-10"/>
      <point x="120" y="144"/>
      <point x="120" y="263" type="qcurve"/>
      <point x="120" y="382"/>
      <point x="298" y="536"/>
      <point x="438" y="536" type="qcurve"/>
      <point x="554" y="536"/>
      <point x="711" y="438"/>
      <point x="711" y="391" type="qcurve"/>
      <point x="681" y="389" type="line"/>
    </contour>
    <contour>
      <point x="225" y="263" type="qcurve"/>
      <point x="225" y="187"/>
      <point x="354" y="85"/>
      <point x="455" y="85" type="qcurve"/>
      <point x="557" y="85"/>
      <point x="685" y="187"/>
      <point x="685" y="263" type="qcurve"/>
      <point x="685" y="338"/>
      <point x="557" y="440"/>
      <point x="455" y="440" type="qcurve"/>
      <point x="354" y="440"/>
      <point x="225" y="338"/>
    </contour>
  </outline>
</glyph>
<glyph name="g" format="2">
  <advance width="1001"/>
  <unicode hex="0067"/>
  <note>
g
</note>
  <anchor x="511" y="-230" name="bottom"/>
  <anchor x="511" y="525" name="top"/>
  <outline>
    <contour>
      <point x="200" y="-167" type="qcurve"/>
      <point x="236" y="-81" type="line"/>
      <point x="271.4153824282316" y="-98.17109451065775"/>
      <point x="394.0044843049327" y="-138.0"/>
      <point x="479" y="-138" type="qcurve"/>
      <point x="574.7437185929648" y="-138.0"/>
      <point x="698.0" y="-35.0"/>
      <point x="698" y="60" type="qcurve"/>
      <point x="698" y="121" type="line"/>
      <point x="709" y="114" type="line"/>
      <point x="699" y="71"/>
      <point x="537" y="-10"/>
      <point x="434" y="-10" type="qcurve"/>
      <point x="298" y="-10"/>
      <point x="130" y="144"/>
      <point x="130" y="263" type="qcurve" smooth="yes"/>
      <point x="130" y="382"/>
      <point x="309" y="536"/>
      <point x="451" y="536" type="qcurve"/>
      <point x="566" y="536"/>
      <point x="720" y="444"/>
      <point x="720" y="410" type="qcurve"/>
      <point x="698" y="402" type="line"/>
      <point x="698" y="525" type="line"/>
      <point x="801" y="525" type="line"/>
      <point x="801" y="72" type="line"/>
      <point x="801.0" y="-82.00000000000003"/>
      <point x="601.615894039735" y="-230.0"/>
      <point x="479" y="-230" type="qcurve"/>
      <point x="380.97297297297297" y="-230.0"/>
      <point x="241.1572411326464" y="-193.38284687990154"/>
    </contour>
    <contour>
      <point x="702" y="263" type="qcurve"/>
      <point x="702" y="340"/>
      <point x="576" y="442"/>
      <point x="475" y="442" type="qcurve"/>
      <point x="371" y="442"/>
      <point x="235" y="339"/>
      <point x="235" y="263" type="qcurve"/>
      <point x="235" y="187"/>
      <point x="371" y="85"/>
      <point x="475" y="85" type="qcurve"/>
      <point x="576" y="85"/>
      <point x="702" y="186"/>
    </contour>
  </outline>
</glyph>
<glyph name="h" format="2">
  <advance width="1015"/>
  <unicode hex="0068"/>
  <note>
h
</note>
  <anchor x="508" y="0" name="bottom"/>
  <anchor x="276" y="608" name="center"/>
  <anchor x="265" y="740" name="top"/>
  <outline>
    <contour>
      <point x="555" y="536" type="qcurve"/>
      <point x="674" y="536"/>
      <point x="795" y="403"/>
      <point x="795" y="310" type="qcurve"/>
      <point x="795" y="0" type="line"/>
      <point x="692" y="0" type="line"/>
      <point x="692" y="293" type="line"/>
      <point x="692" y="359"/>
      <point x="591" y="443"/>
      <point x="521" y="443" type="qcurve" smooth="yes"/>
      <point x="435" y="443"/>
      <point x="323" y="329"/>
      <point x="323" y="278" type="qcurve"/>
      <point x="323" y="0" type="line"/>
      <point x="323" y="0"/>
      <point x="220" y="0"/>
      <point x="220" y="0" type="qcurve"/>
      <point x="220" y="740" type="line"/>
      <point x="323" y="740" type="line"/>
      <point x="323" y="377" type="line"/>
      <point x="285" y="375" type="line"/>
      <point x="304" y="431"/>
      <point x="456" y="536"/>
    </contour>
  </outline>
</glyph>
<glyph name="k" format="2">
  <advance width="941"/>
  <unicode hex="006B"/>
  <note>
k
</note>
  <anchor x="466" y="0" name="bottom"/>
  <anchor x="466" y="740" name="top"/>
  <outline>
    <contour>
      <point x="303" y="0" type="line"/>
      <point x="210" y="0" type="line"/>
      <point x="210" y="740" type="line"/>
      <point x="303" y="740" type="line"/>
    </contour>
    <contour>
      <point x="668" y="525" type="line"/>
      <point x="812" y="525" type="line"/>
      <point x="287" y="134" type="line"/>
      <point x="299" y="246" type="line"/>
    </contour>
    <contour>
      <point x="816" y="0" type="line"/>
      <point x="684" y="0" type="line"/>
      <point x="411" y="291" type="line"/>
      <point x="479" y="358" type="line"/>
    </contour>
  </outline>
</glyph>
<glyph name="l" format="2">
  <advance width="523"/>
  <unicode hex="006C"/>
  <note>
l
</note>
  <outline>
    <contour>
      <point x="313" y="0" type="line"/>
      <point x="210" y="0" type="line"/>
      <point x="210" y="740" type="line"/>
      <point x="313" y="740" type="line"/>
    </contour>
  </outline>
</glyph>
<glyph name="m" format="2">
  <advance width="1425"/>
  <unicode hex="006D"/>
  <note>
m
</note>
  <anchor x="723" y="0" name="bottom"/>
  <anchor x="723" y="525" name="top"/>
  <outline>
    <contour>
      <point x="547" y="534" type="qcurve"/>
      <point x="629" y="534"/>
      <point x="750" y="453"/>
      <point x="756" y="369" type="qcurve"/>
      <point x="720" y="377" type="line"/>
      <point x="727" y="394" type="line"/>
      <point x="753" y="430"/>
      <point x="898" y="534"/>
      <point x="997" y="534" type="qcurve"/>
      <point x="1127" y="534"/>
      <point x="1225" y="399"/>
      <point x="1225" y="305" type="qcurve"/>
      <point x="1225" y="0" type="line"/>
      <point x="1121" y="0" type="line"/>
      <point x="1121" y="289" type="line"/>
      <point x="1121" y="355"/>
      <point x="1056" y="439"/>
      <point x="981" y="439" type="qcurve"/>
      <point x="889" y="439"/>
      <point x="763" y="330"/>
      <point x="763" y="254" type="qcurve"/>
      <point x="763" y="0" type="line"/>
      <point x="659" y="0" type="line"/>
      <point x="659" y="291" type="line"/>
      <point x="659" y="356"/>
      <point x="583" y="439"/>
      <point x="496" y="439" type="qcurve"/>
      <point x="412" y="439"/>
      <point x="304" y="326"/>
      <point x="304" y="276" type="qcurve"/>
      <point x="304" y="0" type="line"/>
      <point x="200" y="0" type="line"/>
      <point x="200" y="525" type="line"/>
      <point x="304" y="525" type="line"/>
      <point x="304" y="373" type="line"/>
      <point x="265" y="381" type="line"/>
      <point x="282" y="425"/>
      <point x="431" y="534"/>
    </contour>
  </outline>
</glyph>
<glyph name="u" format="2">
  <advance width="981"/>
  <unicode hex="0075"/>
  <note>
u
</note>
  <anchor x="496" y="0" name="bottom"/>
  <anchor x="800" y="11" name="ogonek"/>
  <anchor x="496" y="525" name="top"/>
  <anchor x="770" y="481" name="topright"/>
  <outline>
    <contour>
      <point x="476" y="93" type="qcurve"/>
      <point x="555" y="93"/>
      <point x="678" y="188"/>
      <point x="678" y="284" type="qcurve"/>
      <point x="678" y="525" type="line"/>
      <point x="781" y="525" type="line"/>
      <point x="781" y="0" type="line"/>
      <point x="678" y="0" type="line"/>
      <point x="678" y="110" type="line"/>
      <point x="696" y="122" type="line"/>
      <point x="669" y="67"/>
      <point x="530" y="-10"/>
      <point x="434" y="-10" type="qcurve"/>
      <point x="332" y="-10"/>
      <point x="200" y="133"/>
      <point x="200" y="255" type="qcurve"/>
      <point x="200" y="525" type="line"/>
      <point x="303" y="525" type="line"/>
      <point x="303" y="293" type="line"/>
      <point x="303" y="178"/>
      <point x="380.0" y="93"/>
    </contour>
  </outline>
</glyph>
<glyph name="x" format="2">
  <advance width="992"/>
  <unicode hex="0078"/>
  <note>
x
</note>
  <anchor x="496" y="0" name="bottom"/>
  <anchor x="496" y="525" name="top"/>
  <outline>
    <contour>
      <point x="170" y="525" type="line"/>
      <point x="325" y="525" type="line"/>
      <point x="526" y="302" type="line"/>
      <point x="544" y="284" type="line"/>
      <point x="842" y="0" type="line"/>
      <point x="691" y="0" type="line"/>
      <point x="469" y="222" type="line"/>
      <point x="458" y="233" type="line"/>
    </contour>
    <contour>
      <point x="297" y="0" type="line"/>
      <point x="151" y="0" type="line"/>
      <point x="418" y="280" type="line"/>
      <point x="489" y="218" type="line"/>
    </contour>
    <contour>
      <point x="687" y="525" type="line"/>
      <point x="834" y="525" type="line"/>
      <point x="550" y="248" type="line"/>
      <point x="488" y="320" type="line"/>
    </contour>
  </outline>
</glyph>
<glyph name="z" format="2">
  <advance width="729"/>
  <unicode hex="007A"/>
  <note>
z
</note>
  <anchor x="365" y="0" name="bottom"/>
  <anchor x="365" y="525" name="top"/>
  <outline>
    <contour>
      <point x="202" y="86" type="line"/>
      <point x="629" y="86" type="line"/>
      <point x="629" y="0" type="line"/>
      <point x="100" y="0" type="line"/>
      <point x="100" y="86" type="line"/>
      <point x="504" y="448" type="line"/>
      <point x="521" y="439" type="line"/>
      <point x="100" y="439" type="line"/>
      <point x="100" y="525" type="line"/>
      <point x="623" y="525" type="line"/>
      <point x="623" y="441" type="line"/>
      <point x="222" y="84" type="line"/>
    </contour>
  </outline>
</glyph>
<glyph name="braceleft" format="2">
  <advance width="758"/>
  <unicode hex="007B"/>
  <note>
braceleft
</note>
  <outline>
    <contour>
      <point x="633" y="-116" type="qcurve"/>
      <point x="615" y="-200" type="line"/>
      <point x="449" y="-178"/>
      <point x="340" y="-79"/>
      <point x="340" y="-7" type="qcurve"/>
      <point x="341" y="88" type="line"/>
      <point x="341" y="145"/>
      <point x="265" y="200"/>
      <point x="193" y="201" type="qcurve"/>
      <point x="150" y="201" type="line"/>
      <point x="150" y="292" type="line"/>
      <point x="195" y="292" type="line"/>
      <point x="267" y="293"/>
      <point x="341" y="360"/>
      <point x="341" y="412" type="qcurve"/>
      <point x="340" y="507" type="line"/>
      <point x="340" y="587"/>
      <point x="466" y="678"/>
      <point x="615" y="700" type="qcurve"/>
      <point x="633" y="616" type="line"/>
      <point x="517" y="593"/>
      <point x="451" y="532"/>
      <point x="451" y="478" type="qcurve"/>
      <point x="453" y="398" type="line"/>
      <point x="453" y="338"/>
      <point x="381" y="263"/>
      <point x="315" y="249" type="qcurve"/>
      <point x="314" y="252" type="line"/>
      <point x="381" y="236"/>
      <point x="453" y="162"/>
      <point x="453" y="102" type="qcurve"/>
      <point x="451" y="22" type="line"/>
      <point x="451" y="-32"/>
      <point x="517" y="-91"/>
    </contour>
  </outline>
</glyph>
<glyph name="sterling" format="2">
  <advance width="940"/>
  <unicode hex="00A3"/>
  <note>
sterling
</note>
  <outline>
    <contour>
      <point x="682" y="306" type="line"/>
      <point x="134" y="306" type="line"/>
      <point x="134" y="408" type="line"/>
      <point x="682" y="408" type="line"/>
    </contour>
    <contour>
      <point x="317" y="150" type="qcurve"/>
      <point x="363" y="150"/>
      <point x="456" y="127"/>
      <point x="500" y="114" type="qcurve" smooth="yes"/>
      <point x="541" y="102"/>
      <point x="620" y="83"/>
      <point x="655" y="83" type="qcurve"/>
      <point x="691" y="83"/>
      <point x="749" y="119"/>
      <point x="768" y="138" type="qcurve"/>
      <point x="820" y="57" type="line"/>
      <point x="789" y="20"/>
      <point x="702" y="-21"/>
      <point x="655" y="-21" type="qcurve"/>
      <point x="619" y="-21"/>
      <point x="526" y="0"/>
      <point x="479" y="12" type="qcurve" smooth="yes"/>
      <point x="429" y="24"/>
      <point x="336" y="46"/>
      <point x="304" y="46" type="qcurve"/>
      <point x="263" y="46"/>
      <point x="184" y="10"/>
      <point x="160" y="-6" type="qcurve"/>
      <point x="120" y="81" type="line"/>
      <point x="157" y="114"/>
      <point x="256" y="150"/>
    </contour>
    <contour>
      <point x="385" y="224" type="qcurve"/>
      <point x="385" y="166"/>
      <point x="330" y="81"/>
      <point x="304" y="53" type="qcurve"/>
      <point x="212" y="74" type="line"/>
      <point x="231" y="84"/>
      <point x="265" y="152"/>
      <point x="265" y="201" type="qcurve"/>
      <point x="265" y="240"/>
      <point x="245" y="315"/>
      <point x="233" y="351" type="qcurve" smooth="yes"/>
      <point x="222" y="386"/>
      <point x="204" y="453"/>
      <point x="204" y="487" type="qcurve"/>
      <point x="204" y="585"/>
      <point x="362" y="710"/>
      <point x="500" y="710" type="qcurve"/>
      <point x="602" y="710"/>
      <point x="731" y="648"/>
      <point x="759" y="605" type="qcurve"/>
      <point x="685" y="534" type="line"/>
      <point x="650" y="567"/>
      <point x="559" y="602"/>
      <point x="500" y="602" type="qcurve"/>
      <point x="407" y="602"/>
      <point x="324" y="538"/>
      <point x="324" y="486" type="qcurve"/>
      <point x="324" y="456"/>
      <point x="343" y="388"/>
      <point x="354" y="354" type="qcurve" smooth="yes"/>
      <point x="366" y="320"/>
      <point x="385" y="253"/>
    </contour>
  </outline>
</glyph>
<glyph name="currency" format="2">
  <advance width="830"/>
  <unicode hex="00A4"/>
  <note>
currency
</note>
  <outline>
    <contour>
      <point x="607" y="302" type="qcurve"/>
      <point x="607" y="223"/>
      <point x="497" y="112"/>
      <point x="419" y="112" type="qcurve"/>
      <point x="341" y="112"/>
      <point x="231" y="223"/>
      <point x="231" y="302" type="qcurve"/>
      <point x="231" y="380"/>
      <point x="341" y="492"/>
      <point x="419" y="492" type="qcurve"/>
      <point x="497" y="492"/>
      <point x="607" y="380"/>
    </contour>
    <contour>
      <point x="337" y="302" type="qcurve"/>
      <point x="337" y="263"/>
      <point x="382" y="210"/>
      <point x="419" y="210" type="qcurve"/>
      <point x="457" y="210"/>
      <point x="502" y="263"/>
      <point x="502" y="302" type="qcurve"/>
      <point x="502" y="340"/>
      <point x="457" y="395"/>
      <point x="419" y="395" type="qcurve"/>
      <point x="382" y="395"/>
      <point x="337" y="340"/>
    </contour>
    <contour>
      <point x="288" y="359" type="line"/>
      <point x="190" y="451" type="line"/>
      <point x="260" y="521" type="line"/>
      <point x="358" y="429" type="line"/>
    </contour>
    <contour>
      <point x="568" y="90" type="line"/>
      <point x="470" y="182" type="line"/>
      <point x="540" y="252" type="line"/>
      <point x="638" y="160" type="line"/>
    </contour>
    <contour>
      <point x="477" y="432" type="line"/>
      <point x="569" y="530" type="line"/>
      <point x="640" y="460" type="line"/>
      <point x="547" y="362" type="line"/>
    </contour>
    <contour>
      <point x="198" y="152" type="line"/>
      <point x="290" y="250" type="line"/>
      <point x="361" y="179" type="line"/>
      <point x="269" y="82" type="line"/>
    </contour>
  </outline>
</glyph>
<glyph name="brokenbar" format="2">
  <advance width="497"/>
  <unicode hex="00A6"/>
  <note>
brokenbar
</note>
  <outline>
    <contour>
      <point x="307" y="740" type="line"/>
      <point x="307" y="341" type="line"/>
      <point x="190" y="341" type="line"/>
      <point x="190" y="740" type="line"/>
    </contour>
    <contour>
      <point x="307" y="198" type="line"/>
      <point x="307" y="-202" type="line"/>
      <point x="190" y="-202" type="line"/>
      <point x="190" y="198" type="line"/>
    </contour>
  </outline>
</glyph>
<glyph name="section" format="2">
  <advance width="846"/>
  <unicode hex="00A7"/>
  <note>
section
</note>
  <outline>
    <contour>
      <point x="523" y="435" type="qcurve" smooth="yes"/>
      <point x="622" y="422"/>
      <point x="726" y="345"/>
      <point x="726" y="276" type="qcurve" smooth="yes"/>
      <point x="726" y="191"/>
      <point x="608" y="104"/>
      <point x="521" y="105" type="qcurve"/>
      <point x="516" y="175" type="line"/>
      <point x="613" y="145"/>
      <point x="711" y="79"/>
      <point x="711" y="13" type="qcurve" smooth="yes"/>
      <point x="711" y="-76"/>
      <point x="548" y="-168"/>
      <point x="417" y="-168" type="qcurve" smooth="yes"/>
      <point x="335" y="-168"/>
      <point x="185" y="-119"/>
      <point x="129" y="-73" type="qcurve"/>
      <point x="194" y="21" type="line"/>
      <point x="245" y="-20"/>
      <point x="354" y="-62"/>
      <point x="416" y="-62" type="qcurve" smooth="yes"/>
      <point x="488" y="-62"/>
      <point x="593" y="-34"/>
      <point x="593" y="0" type="qcurve" smooth="yes"/>
      <point x="593" y="41"/>
      <point x="415" y="76"/>
      <point x="301" y="97" type="qcurve" smooth="yes"/>
      <point x="208" y="114"/>
      <point x="120" y="199"/>
      <point x="120" y="274" type="qcurve" smooth="yes"/>
      <point x="120" y="325"/>
      <point x="196" y="426"/>
      <point x="274" y="427" type="qcurve"/>
      <point x="263" y="382" type="line"/>
      <point x="198" y="405"/>
      <point x="147" y="479"/>
      <point x="147" y="530" type="qcurve" smooth="yes"/>
      <point x="147" y="626"/>
      <point x="308" y="711"/>
      <point x="428" y="711" type="qcurve" smooth="yes"/>
      <point x="506" y="711"/>
      <point x="644" y="661"/>
      <point x="689" y="615" type="qcurve"/>
      <point x="632" y="525" type="line"/>
      <point x="592" y="559"/>
      <point x="472" y="600"/>
      <point x="418" y="600" type="qcurve" smooth="yes"/>
      <point x="359" y="600"/>
      <point x="265" y="574"/>
      <point x="265" y="531" type="qcurve" smooth="yes"/>
      <point x="265" y="489"/>
      <point x="386" y="453"/>
    </contour>
    <contour>
      <point x="227" y="284" type="qcurve" smooth="yes"/>
      <point x="227" y="265"/>
      <point x="264" y="217"/>
      <point x="328" y="209" type="qcurve" smooth="yes"/>
      <point x="493" y="187" type="line" smooth="yes"/>
      <point x="506" y="186"/>
      <point x="528" y="184"/>
      <point x="538" y="184" type="qcurve" smooth="yes"/>
      <point x="587" y="184"/>
      <point x="628" y="219"/>
      <point x="628" y="249" type="qcurve" smooth="yes"/>
      <point x="628" y="279"/>
      <point x="572" y="313"/>
      <point x="512" y="322" type="qcurve" smooth="yes"/>
      <point x="333" y="349" type="line"/>
      <point x="328" y="350"/>
      <point x="317" y="351"/>
      <point x="313" y="351" type="qcurve" smooth="yes"/>
      <point x="279" y="351"/>
      <point x="227" y="315"/>
    </contour>
  </outline>
</glyph>
<glyph name="copyright" format="2">
  <advance width="974"/>
  <unicode hex="00A9"/>
  <note>
copyright
</note>
  <outline>
    <contour>
      <point x="854" y="350" type="qcurve" smooth="yes"/>
      <point x="854" y="196"/>
      <point x="637" y="-17"/>
      <point x="487" y="-17" type="qcurve" smooth="yes"/>
      <point x="336" y="-17"/>
      <point x="120" y="196"/>
      <point x="120" y="350" type="qcurve" smooth="yes"/>
      <point x="120" y="504"/>
      <point x="336" y="717"/>
      <point x="487" y="717" type="qcurve" smooth="yes"/>
      <point x="637" y="717"/>
      <point x="854" y="504"/>
    </contour>
    <contour>
      <point x="204" y="350" type="qcurve" smooth="yes"/>
      <point x="204" y="231"/>
      <point x="371" y="67"/>
      <point x="487" y="67" type="qcurve" smooth="yes"/>
      <point x="603" y="67"/>
      <point x="770" y="231"/>
      <point x="770" y="350" type="qcurve" smooth="yes"/>
      <point x="770" y="469"/>
      <point x="603" y="633"/>
      <point x="487" y="633" type="qcurve" smooth="yes"/>
      <point x="371" y="633"/>
      <point x="204" y="469"/>
    </contour>
    <contour>
      <point x="505" y="142" type="qcurve" smooth="yes"/>
      <point x="421" y="142"/>
      <point x="291" y="255"/>
      <point x="291" y="350" type="qcurve" smooth="yes"/>
      <point x="291" y="434"/>
      <point x="415" y="557"/>
      <point x="505" y="557" type="qcurve" smooth="yes"/>
      <point x="539" y="557"/>
      <point x="606" y="533"/>
      <point x="634" y="512" type="qcurve"/>
      <point x="597" y="437" type="line"/>
      <point x="577" y="452"/>
      <point x="531" y="476"/>
      <point x="505" y="476" type="qcurve" smooth="yes"/>
      <point x="450" y="476"/>
      <point x="377" y="402"/>
      <point x="377" y="350" type="qcurve" smooth="yes"/>
      <point x="377" y="292"/>
      <point x="453" y="223"/>
      <point x="505" y="223" type="qcurve" smooth="yes"/>
      <point x="530" y="223"/>
      <point x="579" y="244"/>
      <point x="601" y="261" type="qcurve"/>
      <point x="638" y="185" type="line"/>
      <point x="607" y="163"/>
      <point x="539" y="142"/>
    </contour>
  </outline>
</glyph>
<glyph name="ordfeminine" format="2">
  <advance width="520"/>
  <unicode hex="00AA"/>
  <note>
ordfeminine
</note>
  <outline>
    <contour>
      <point x="228" y="391" type="qcurve"/>
      <point x="164" y="391"/>
      <point x="100" y="493"/>
      <point x="100" y="562" type="qcurve"/>
      <point x="100" y="628"/>
      <point x="176" y="721"/>
      <point x="240" y="721" type="qcurve"/>
      <point x="286" y="721"/>
      <point x="342" y="657"/>
      <point x="342" y="592" type="qcurve"/>
      <point x="327" y="648" type="line"/>
      <point x="327" y="715" type="line"/>
      <point x="420" y="715" type="line"/>
      <point x="420" y="401" type="line"/>
      <point x="327" y="401" type="line"/>
      <point x="327" y="474" type="line"/>
      <point x="342" y="512" type="line"/>
      <point x="342" y="475"/>
      <point x="280" y="391"/>
    </contour>
    <contour>
      <point x="193" y="562" type="qcurve"/>
      <point x="193" y="519"/>
      <point x="224" y="458"/>
      <point x="257" y="458" type="qcurve"/>
      <point x="288" y="458"/>
      <point x="331" y="509"/>
      <point x="331" y="555" type="qcurve"/>
      <point x="331" y="601"/>
      <point x="291" y="654"/>
      <point x="256" y="654" type="qcurve"/>
      <point x="230" y="654"/>
      <point x="193" y="600"/>
    </contour>
  </outline>
</glyph>
<glyph name="registered" format="2">
  <advance width="689"/>
  <unicode hex="00AE"/>
  <note>
registered
</note>
  <outline>
    <contour>
      <point x="574" y="484" type="qcurve" smooth="yes"/>
      <point x="574" y="390"/>
      <point x="438" y="259"/>
      <point x="345" y="259" type="qcurve" smooth="yes"/>
      <point x="250" y="259"/>
      <point x="115" y="390"/>
      <point x="115" y="484" type="qcurve" smooth="yes"/>
      <point x="115" y="577"/>
      <point x="250" y="709"/>
      <point x="345" y="709" type="qcurve" smooth="yes"/>
      <point x="438" y="709"/>
      <point x="574" y="577"/>
    </contour>
    <contour>
      <point x="442" y="534" type="qcurve" smooth="yes"/>
      <point x="442" y="497"/>
      <point x="394" y="461"/>
      <point x="368" y="461" type="qcurve"/>
      <point x="297" y="461" type="line"/>
      <point x="315" y="470" type="line"/>
      <point x="315" y="367" type="line"/>
      <point x="258" y="367" type="line"/>
      <point x="258" y="606" type="line"/>
      <point x="368" y="606" type="line" smooth="yes"/>
      <point x="399" y="606"/>
      <point x="442" y="567"/>
    </contour>
    <contour>
      <point x="299" y="502" type="line"/>
      <point x="348" y="502" type="line" smooth="yes"/>
      <point x="364" y="502"/>
      <point x="387" y="517"/>
      <point x="387" y="529" type="qcurve" smooth="yes"/>
      <point x="387" y="543"/>
      <point x="366" y="556"/>
      <point x="350" y="556" type="qcurve" smooth="yes"/>
      <point x="296" y="556" type="line"/>
      <point x="315" y="564" type="line"/>
      <point x="315" y="495" type="line"/>
    </contour>
    <contour>
      <point x="177" y="484" type="qcurve" smooth="yes"/>
      <point x="177" y="416"/>
      <point x="276" y="322"/>
      <point x="345" y="322" type="qcurve" smooth="yes"/>
      <point x="413" y="322"/>
      <point x="511" y="416"/>
      <point x="511" y="484" type="qcurve" smooth="yes"/>
      <point x="511" y="552"/>
      <point x="413" y="647"/>
      <point x="345" y="647" type="qcurve" smooth="yes"/>
      <point x="276" y="647"/>
      <point x="177" y="552"/>
    </contour>
    <contour>
      <point x="378" y="367" type="line"/>
      <point x="341" y="467" type="line"/>
      <point x="394" y="481" type="line"/>
      <point x="438" y="367" type="line"/>
    </contour>
  </outline>
</glyph>
<glyph name="macron" format="2">
  <advance width="424"/>
  <unicode hex="00AF"/>
  <anchor x="199" y="515" name="_top"/>
  <outline>
    <contour>
      <point x="374" y="590" type="line"/>
      <point x="50" y="590" type="line"/>
      <point x="50" y="670" type="line"/>
      <point x="374" y="670" type="line"/>
    </contour>
  </outline>
</glyph>
<glyph name="degree" format="2">
  <advance width="532"/>
  <unicode hex="00B0"/>
  <note>
degree
</note>
  <outline>
    <contour>
      <point x="422" y="554" type="qcurve"/>
      <point x="422" y="491"/>
      <point x="334" y="399"/>
      <point x="266" y="399" type="qcurve"/>
      <point x="198" y="399"/>
      <point x="110" y="491"/>
      <point x="110" y="553" type="qcurve"/>
      <point x="110" y="617"/>
      <point x="198" y="709"/>
      <point x="266" y="709" type="qcurve"/>
      <point x="334" y="709"/>
      <point x="422" y="617"/>
    </contour>
    <contour>
      <point x="185" y="553" type="qcurve"/>
      <point x="185" y="519"/>
      <point x="230" y="466"/>
      <point x="266" y="466" type="qcurve"/>
      <point x="301" y="466"/>
      <point x="347" y="520"/>
      <point x="347" y="554" type="qcurve"/>
      <point x="347" y="588"/>
      <point x="301" y="641"/>
      <point x="266" y="641" type="qcurve"/>
      <point x="230" y="641"/>
      <point x="185" y="589"/>
    </contour>
  </outline>
</glyph>
<glyph name="micro" format="2">
  <advance width="896"/>
  <unicode hex="00B5"/>
  <note>
uni00B5
</note>
  <outline>
    <contour>
      <point x="629" y="525" type="line"/>
      <point x="746" y="525" type="line"/>
      <point x="746" y="0" type="line"/>
      <point x="629" y="0" type="line"/>
      <point x="629" y="97" type="line"/>
      <point x="631" y="89" type="line"/>
      <point x="624" y="66"/>
      <point x="502" y="-10"/>
      <point x="409" y="-10" type="qcurve" smooth="yes"/>
      <point x="372" y="-10"/>
      <point x="278" y="19"/>
      <point x="260" y="49" type="qcurve"/>
      <point x="267" y="62" type="line"/>
      <point x="267" y="-157" type="line"/>
      <point x="151" y="-157" type="line"/>
      <point x="150" y="525" type="line"/>
      <point x="267" y="525" type="line"/>
      <point x="267" y="238" type="line" smooth="yes"/>
      <point x="267" y="179"/>
      <point x="337" y="96"/>
      <point x="424" y="96" type="qcurve" smooth="yes"/>
      <point x="514" y="96"/>
      <point x="629" y="190"/>
      <point x="629" y="252" type="qcurve" smooth="yes"/>
    </contour>
  </outline>
</glyph>
<glyph name="paragraph" format="2">
  <advance width="1036"/>
  <unicode hex="00B6"/>
  <note>
paragraph
</note>
  <outline>
    <contour>
      <point x="854" y="0" type="line"/>
      <point x="726" y="0" type="line"/>
      <point x="726" y="660" type="line"/>
      <point x="742" y="581" type="line"/>
      <point x="460" y="581" type="line"/>
      <point x="524" y="652" type="line"/>
      <point x="524" y="0" type="line"/>
      <point x="396" y="0" type="line"/>
      <point x="396" y="314" type="line"/>
      <point x="420" y="279" type="line"/>
      <point x="386" y="279" type="line" smooth="yes"/>
      <point x="256" y="279"/>
      <point x="128" y="393"/>
      <point x="128" y="486" type="qcurve" smooth="yes"/>
      <point x="128" y="586"/>
      <point x="272" y="700"/>
      <point x="423" y="700" type="qcurve" smooth="yes"/>
      <point x="854" y="700" type="line"/>
    </contour>
  </outline>
</glyph>
<glyph name="ordmasculine" format="2">
  <advance width="554"/>
  <unicode hex="00BA"/>
  <note>
ordmasculine
</note>
  <outline>
    <contour>
      <point x="276" y="710" type="qcurve"/>
      <point x="343" y="710"/>
      <point x="434" y="617"/>
      <point x="434" y="549" type="qcurve"/>
      <point x="434" y="482"/>
      <point x="343" y="392"/>
      <point x="276" y="392" type="qcurve"/>
      <point x="209" y="392"/>
      <point x="120" y="482"/>
      <point x="120" y="549" type="qcurve"/>
      <point x="120" y="617"/>
      <point x="209" y="710"/>
    </contour>
    <contour>
      <point x="276" y="463" type="qcurve"/>
      <point x="307" y="463"/>
      <point x="345" y="512"/>
      <point x="345" y="549" type="qcurve"/>
      <point x="345" y="588"/>
      <point x="307" y="639"/>
      <point x="276" y="639" type="qcurve"/>
      <point x="245" y="639"/>
      <point x="208" y="588"/>
      <point x="208" y="549" type="qcurve"/>
      <point x="208" y="512"/>
      <point x="245" y="463"/>
    </contour>
  </outline>
</glyph>
<glyph name="multiply" format="2">
  <advance width="764"/>
  <unicode hex="00D7"/>
  <note>
multiply
</note>
  <outline>
    <contour>
      <point x="657" y="87" type="line"/>
      <point x="571" y="6" type="line"/>
      <point x="121" y="453" type="line"/>
      <point x="207" y="534" type="line"/>
    </contour>
    <contour>
      <point x="207" y="6" type="line"/>
      <point x="131" y="89" type="line"/>
      <point x="564" y="524" type="line"/>
      <point x="641" y="443" type="line"/>
    </contour>
  </outline>
</glyph>
<glyph name="Oslash" format="2">
  <advance width="1102"/>
  <unicode hex="00D8"/>
  <note>
Oslash
</note>
  <anchor x="551" y="0" name="bottom"/>
  <anchor x="551" y="700" name="top"/>
  <anchor x="551" y="350" name="center"/>
  <anchor x="646" y="10" name="ogonek"/>
  <anchor x="20" y="700" name="topleft"/>
  <anchor x="798" y="710" name="topright"/>
  <outline>
    <contour>
      <point x="171" y="-34" type="line"/>
      <point x="111" y="39" type="line"/>
      <point x="919" y="737" type="line"/>
      <point x="985" y="669" type="line"/>
    </contour>
    <contour>
      <point x="551" y="710" type="qcurve"/>
      <point x="735" y="710"/>
      <point x="974" y="501"/>
      <point x="974" y="350" type="qcurve"/>
      <point x="974" y="199"/>
      <point x="735" y="-10"/>
      <point x="551" y="-10" type="qcurve"/>
      <point x="366" y="-10"/>
      <point x="128" y="199"/>
      <point x="128" y="350" type="qcurve"/>
      <point x="128" y="501"/>
      <point x="366" y="710"/>
    </contour>
    <contour>
      <point x="551" y="95" type="qcurve" smooth="yes"/>
      <point x="688" y="95"/>
      <point x="864" y="242"/>
      <point x="864" y="350" type="qcurve"/>
      <point x="864" y="458"/>
      <point x="688" y="605"/>
      <point x="551" y="605" type="qcurve" smooth="yes"/>
      <point x="412" y="605"/>
      <point x="238" y="459"/>
      <point x="238" y="350" type="qcurve"/>
      <point x="238" y="241"/>
      <point x="412" y="95"/>
    </contour>
  </outline>
</glyph>
<glyph name="Thorn" format="2">
  <advance width="968"/>
  <unicode hex="00DE"/>
  <note>
Thorn
</note>
  <anchor x="477" y="0" name="bottom"/>
  <anchor x="477" y="700" name="top"/>
  <outline>
    <contour>
      <point x="182" y="700" type="line"/>
      <point x="290" y="700" type="line"/>
      <point x="290" y="0" type="line"/>
      <point x="182" y="0" type="line"/>
    </contour>
    <contour>
      <point x="282" y="141" type="line"/>
      <point x="281" y="245" type="line"/>
      <point x="601" y="245" type="line" smooth="yes"/>
      <point x="648" y="245"/>
      <point x="718" y="311"/>
      <point x="718" y="358" type="qcurve" smooth="yes"/>
      <point x="718" y="404"/>
      <point x="648" y="469"/>
      <point x="601" y="469" type="qcurve" smooth="yes"/>
      <point x="251" y="469" type="line"/>
      <point x="222" y="573" type="line"/>
      <point x="588" y="573" type="line" smooth="yes"/>
      <point x="701" y="573"/>
      <point x="833" y="463"/>
      <point x="833" y="358" type="qcurve" smooth="yes"/>
      <point x="833" y="268"/>
      <point x="701" y="141"/>
      <point x="588" y="141" type="qcurve" smooth="yes"/>
    </contour>
  </outline>
</glyph>
<glyph name="eth" format="2">
  <advance width="904"/>
  <unicode hex="00F0"/>
  <note>
eth
</note>
  <outline>
    <contour>
      <point x="774" y="283" type="qcurve" smooth="yes"/>
      <point x="774.0" y="148"/>
      <point x="582.820895522388" y="-7.0"/>
      <point x="447" y="-7" type="qcurve"/>
      <point x="299.9850746268657" y="-7.0"/>
      <point x="130.0" y="150.05970149253733"/>
      <point x="130" y="262" type="qcurve"/>
      <point x="130.0" y="373.19402985074623"/>
      <point x="307.3880597014926" y="528.0"/>
      <point x="435" y="528" type="qcurve"/>
      <point x="546.1940298507462" y="528.0"/>
      <point x="678.5970149253732" y="421.88059701492534"/>
      <point x="698" y="348" type="qcurve"/>
      <point x="664" y="335" type="line"/>
      <point x="664.0" y="426.04477611940297"/>
      <point x="516.7611940298507" y="604.8358208955224"/>
      <point x="419" y="672" type="qcurve"/>
      <point x="471" y="740" type="line"/>
      <point x="556.0746268656717" y="695.223880597015"/>
      <point x="774.0" y="431"/>
    </contour>
    <contour>
      <point x="235" y="262" type="qcurve"/>
      <point x="235.0" y="185"/>
      <point x="358.94029850746267" y="79.0"/>
      <point x="447" y="79" type="qcurve"/>
      <point x="538.7910447761194" y="79.0"/>
      <point x="667.0" y="185.13432835820896"/>
      <point x="667" y="262" type="qcurve"/>
      <point x="667.0" y="335.13432835820896"/>
      <point x="534.7611940298507" y="442.0"/>
      <point x="437" y="442" type="qcurve"/>
      <point x="353.4179104477612" y="442.0"/>
      <point x="235.0" y="338"/>
    </contour>
    <contour>
      <point x="583" y="574" type="line"/>
      <point x="386" y="548" type="line"/>
      <point x="373" y="613" type="line"/>
      <point x="518" y="630" type="line"/>
      <point x="573" y="650" type="line"/>
      <point x="719" y="663" type="line"/>
      <point x="737" y="597" type="line"/>
      <point x="624" y="591" type="line"/>
    </contour>
  </outline>
</glyph>
<glyph name="divide" format="2">
  <advance width="877"/>
  <unicode hex="00F7"/>
  <note>
divide
</note>
  <outline>
    <contour>
      <point x="757" y="215" type="line"/>
      <point x="120" y="215" type="line"/>
      <point x="120" y="320" type="line"/>
      <point x="757" y="320" type="line"/>
    </contour>
    <contour>
      <point x="559" y="81" type="qcurve" smooth="yes"/>
      <point x="559.0" y="53"/>
      <point x="499.4179104477612" y="15.0"/>
      <point x="433" y="15" type="qcurve" smooth="yes"/>
      <point x="366.5820895522388" y="15.0"/>
      <point x="307.0" y="52.88059701492537"/>
      <point x="307" y="79" type="qcurve" smooth="yes"/>
      <point x="307.0" y="106.61194029850746"/>
      <point x="366.5820895522388" y="145.0"/>
      <point x="433" y="145" type="qcurve" smooth="yes"/>
      <point x="499.4179104477612" y="145.0"/>
      <point x="559.0" y="107"/>
    </contour>
    <contour>
      <point x="559" y="453" type="qcurve" smooth="yes"/>
      <point x="559.0" y="425"/>
      <point x="499.4179104477612" y="387.0"/>
      <point x="433" y="387" type="qcurve" smooth="yes"/>
      <point x="366.5820895522388" y="387.0"/>
      <point x="307.0" y="424.8805970149254"/>
      <point x="307" y="451" type="qcurve" smooth="yes"/>
      <point x="307.0" y="478.6119402985075"/>
      <point x="366.5820895522388" y="517.0"/>
      <point x="433" y="517" type="qcurve" smooth="yes"/>
      <point x="499.4179104477612" y="517.0"/>
      <point x="559.0" y="479"/>
    </contour>
  </outline>
</glyph>
<glyph name="oslash" format="2">
  <advance width="955"/>
  <unicode hex="00F8"/>
  <note>
oslash
</note>
  <outline>
    <contour>
      <point x="198" y="-15" type="line"/>
      <point x="141" y="43" type="line"/>
      <point x="743" y="536" type="line"/>
      <point x="800" y="476" type="line"/>
    </contour>
    <contour>
      <point x="478" y="536" type="qcurve"/>
      <point x="631" y="536"/>
      <point x="825" y="382"/>
      <point x="825" y="263" type="qcurve"/>
      <point x="825" y="144"/>
      <point x="631" y="-10"/>
      <point x="478" y="-10" type="qcurve"/>
      <point x="324" y="-10"/>
      <point x="130" y="144"/>
      <point x="130" y="263" type="qcurve"/>
      <point x="130" y="382"/>
      <point x="324" y="536"/>
    </contour>
    <contour>
      <point x="478" y="84" type="qcurve"/>
      <point x="580" y="84"/>
      <point x="722" y="185"/>
      <point x="720" y="263" type="qcurve"/>
      <point x="722" y="342"/>
      <point x="580" y="442"/>
      <point x="478" y="442" type="qcurve"/>
      <point x="376" y="442"/>
      <point x="233" y="342"/>
      <point x="235" y="263" type="qcurve"/>
      <point x="233" y="185"/>
      <point x="376" y="84"/>
    </contour>
  </outline>
</glyph>
<glyph name="aogonek" format="2">
  <advance width="1020"/>
  <unicode hex="0105"/>
  <note>
aogonek
</note>
  <outline>
    <contour>
      <point x="594" y="28" type="qcurve" smooth="yes"/>
      <point x="561" y="11"/>
      <point x="483" y="-10"/>
      <point x="442" y="-10" type="qcurve"/>
      <point x="292" y="-10"/>
      <point x="120" y="144"/>
      <point x="120" y="263" type="qcurve"/>
      <point x="120" y="382"/>
      <point x="298" y="536"/>
      <point x="438" y="536" type="qcurve"/>
      <point x="554" y="536"/>
      <point x="711" y="451"/>
      <point x="711" y="411" type="qcurve"/>
      <point x="681" y="389" type="line"/>
      <point x="681" y="525" type="line"/>
      <point x="784" y="525" type="line"/>
      <point x="784" y="0" type="line"/>
      <point x="743" y="-19"/>
      <point x="669" y="-72"/>
      <point x="669" y="-100" type="qcurve" smooth="yes"/>
      <point x="669" y="-117"/>
      <point x="696" y="-144"/>
      <point x="716" y="-144" type="qcurve" smooth="yes"/>
      <point x="731" y="-144"/>
      <point x="765" y="-129"/>
      <point x="781" y="-118" type="qcurve"/>
      <point x="820" y="-177" type="line"/>
      <point x="795" y="-194"/>
      <point x="732" y="-221"/>
      <point x="696" y="-221" type="qcurve" smooth="yes"/>
      <point x="646" y="-221"/>
      <point x="576" y="-162"/>
      <point x="576" y="-114" type="qcurve" smooth="yes"/>
      <point x="576" y="-61"/>
      <point x="691" y="21"/>
      <point x="751" y="52" type="qcurve"/>
      <point x="778" y="0" type="line"/>
      <point x="681" y="0" type="line"/>
      <point x="681" y="125" type="line"/>
      <point x="701" y="134" type="line"/>
      <point x="701" y="112"/>
      <point x="641" y="51"/>
    </contour>
    <contour>
      <point x="225" y="263" type="qcurve"/>
      <point x="225.0" y="187"/>
      <point x="356.7761194029851" y="85.0"/>
      <point x="462" y="85" type="qcurve"/>
      <point x="559.7611940298507" y="85.0"/>
      <point x="685.0" y="186.8805970149254"/>
      <point x="685" y="263" type="qcurve"/>
      <point x="685.0" y="338.3731343283582"/>
      <point x="558.7611940298507" y="440.0"/>
      <point x="461" y="440" type="qcurve"/>
      <point x="355.7761194029851" y="440.0"/>
      <point x="225.0" y="338"/>
    </contour>
  </outline>
</glyph>
<glyph name="Hbar" format="2">
  <advance width="1196"/>
  <unicode hex="0126"/>
  <note>
Hbar
</note>
  <anchor x="593" y="0" name="bottom"/>
  <anchor x="593" y="350" name="center"/>
  <anchor x="593" y="700" name="top"/>
  <anchor x="68" y="700" name="topleft"/>
  <outline>
    <contour>
      <point x="233" y="498" type="line"/>
      <point x="87" y="498" type="line"/>
      <point x="87" y="602" type="line"/>
      <point x="243" y="602" type="line"/>
      <point x="289" y="592" type="line"/>
      <point x="894" y="592" type="line"/>
      <point x="930" y="602" type="line"/>
      <point x="1109" y="602" type="line"/>
      <point x="1109" y="498" type="line"/>
      <point x="937" y="498" type="line"/>
      <point x="906" y="508" type="line"/>
      <point x="279" y="508" type="line"/>
    </contour>
    <contour>
      <point x="230" y="700" type="line"/>
      <point x="338" y="700" type="line"/>
      <point x="338" y="0" type="line"/>
      <point x="230" y="0" type="line"/>
    </contour>
    <contour>
      <point x="827" y="700" type="line"/>
      <point x="935" y="700" type="line"/>
      <point x="935" y="0" type="line"/>
      <point x="827" y="0" type="line"/>
    </contour>
    <contour>
      <point x="277" y="293" type="line"/>
      <point x="278" y="397" type="line"/>
      <point x="875" y="397" type="line"/>
      <point x="875" y="293" type="line"/>
    </contour>
  </outline>
</glyph>
<glyph name="idotless" format="2">
  <advance width="503"/>
  <unicode hex="0131"/>
  <note>
dotlessi
</note>
  <anchor x="252" y="0" name="bottom"/>
  <anchor x="303" y="0" name="ogonek"/>
  <anchor x="251" y="525" name="top"/>
  <outline>
    <contour>
      <point x="303" y="525" type="line"/>
      <point x="303" y="0" type="line"/>
      <point x="200" y="0" type="line"/>
      <point x="200" y="525" type="line"/>
    </contour>
  </outline>
</glyph>
<glyph name="kgreenlandic" format="2">
  <advance width="941"/>
  <unicode hex="0138"/>
  <anchor x="438" y="0" name="bottom"/>
  <anchor x="438" y="525" name="top"/>
  <outline>
    <contour>
      <point x="303" y="0" type="line"/>
      <point x="210" y="0" type="line"/>
      <point x="210" y="525" type="line"/>
      <point x="303" y="525" type="line"/>
    </contour>
    <contour>
      <point x="668" y="525" type="line"/>
      <point x="812" y="525" type="line"/>
      <point x="488" y="283" type="line"/>
      <point x="287" y="134" type="line"/>
      <point x="299" y="246" type="line"/>
    </contour>
    <contour>
      <point x="816" y="0" type="line"/>
      <point x="684" y="0" type="line"/>
      <point x="411" y="291" type="line"/>
      <point x="479" y="358" type="line"/>
    </contour>
  </outline>
</glyph>
<glyph name="Lslash" format="2">
  <advance width="898"/>
  <unicode hex="0141"/>
  <outline>
    <contour>
      <point x="242" y="104" type="line"/>
      <point x="758" y="104" type="line"/>
      <point x="758" y="0" type="line"/>
      <point x="182" y="0" type="line"/>
      <point x="182" y="700" type="line"/>
      <point x="290" y="700" type="line"/>
      <point x="290" y="68" type="line"/>
    </contour>
    <contour>
      <point x="112" y="256" type="line"/>
      <point x="81" y="332" type="line"/>
      <point x="374" y="459" type="line"/>
      <point x="406" y="382" type="line"/>
    </contour>
  </outline>
</glyph>
<glyph name="Eng" format="2">
  <advance width="1121"/>
  <unicode hex="014A"/>
  <note>
Eng
</note>
  <outline>
    <contour>
      <point x="826" y="91" type="line"/>
      <point x="830" y="0" type="line"/>
      <point x="269" y="552" type="line"/>
      <point x="270" y="566" type="line"/>
      <point x="273" y="532"/>
      <point x="280" y="463"/>
      <point x="283" y="429" type="qcurve" smooth="yes"/>
      <point x="286" y="394"/>
      <point x="290" y="325"/>
      <point x="290" y="291" type="qcurve"/>
      <point x="290" y="0" type="line"/>
      <point x="182" y="0" type="line"/>
      <point x="182" y="700" type="line"/>
      <point x="289" y="700" type="line"/>
      <point x="857" y="127" type="line"/>
      <point x="851" y="118" type="line"/>
      <point x="839" y="193"/>
      <point x="831" y="388"/>
      <point x="831" y="470" type="qcurve"/>
      <point x="831" y="700" type="line"/>
      <point x="939" y="700" type="line"/>
      <point x="939" y="161" type="line"/>
      <point x="939" y="106" type="line" smooth="yes"/>
      <point x="939" y="-34"/>
      <point x="783" y="-197"/>
      <point x="669" y="-197" type="qcurve"/>
      <point x="630" y="-95" type="line"/>
      <point x="725" y="-95"/>
      <point x="826" y="3"/>
      <point x="826" y="71" type="qcurve" smooth="yes"/>
    </contour>
  </outline>
</glyph>
<glyph name="eng" format="2">
  <advance width="1015"/>
  <unicode hex="014B"/>
  <note>
eng
</note>
  <anchor x="497" y="0" name="bottom"/>
  <anchor x="506" y="510" name="top"/>
  <outline>
    <contour>
      <point x="545" y="536" type="qcurve"/>
      <point x="669" y="536"/>
      <point x="795" y="403"/>
      <point x="795" y="310" type="qcurve"/>
      <point x="795" y="-25" type="line"/>
      <point x="795" y="-104"/>
      <point x="651" y="-197"/>
      <point x="545" y="-197" type="qcurve"/>
      <point x="506" y="-105" type="line"/>
      <point x="603" y="-105"/>
      <point x="692" y="-49"/>
      <point x="692" y="0" type="qcurve"/>
      <point x="692" y="293" type="line"/>
      <point x="692" y="358"/>
      <point x="591" y="440"/>
      <point x="521" y="440" type="qcurve" smooth="yes"/>
      <point x="435" y="440"/>
      <point x="323" y="329"/>
      <point x="323" y="278" type="qcurve"/>
      <point x="323" y="0" type="line"/>
      <point x="220" y="0" type="line"/>
      <point x="220" y="525" type="line"/>
      <point x="323" y="525" type="line"/>
      <point x="323" y="397" type="line"/>
      <point x="303" y="404" type="line"/>
      <point x="360" y="470"/>
      <point x="472" y="536"/>
    </contour>
  </outline>
</glyph>
<glyph name="OE" format="2">
  <advance width="1472"/>
  <unicode hex="0152"/>
  <note>
OE
</note>
  <outline>
    <contour>
      <point x="128" y="350" type="qcurve" smooth="yes"/>
      <point x="128.0" y="492"/>
      <point x="340.5223880597015" y="700.0"/>
      <point x="545" y="700" type="qcurve" smooth="yes"/>
      <point x="1312" y="700" type="line"/>
      <point x="1312" y="586" type="line"/>
      <point x="830" y="586" type="line"/>
      <point x="839" y="604" type="line"/>
      <point x="839" y="402" type="line"/>
      <point x="830" y="411" type="line"/>
      <point x="1257" y="411" type="line"/>
      <point x="1257" y="297" type="line"/>
      <point x="833" y="297" type="line"/>
      <point x="839" y="306" type="line"/>
      <point x="839" y="107" type="line"/>
      <point x="832" y="114" type="line"/>
      <point x="1312" y="114" type="line"/>
      <point x="1312" y="0" type="line"/>
      <point x="525" y="0" type="line" smooth="yes"/>
      <point x="330.22388059701495" y="0.0"/>
      <point x="128.0" y="206"/>
    </contour>
    <contour>
      <point x="772" y="114" type="line"/>
      <point x="731" y="57" type="line"/>
      <point x="731" y="641" type="line"/>
      <point x="772" y="586" type="line"/>
      <point x="548" y="586" type="line" smooth="yes"/>
      <point x="395.7611940298508" y="586.0"/>
      <point x="258.0" y="445.5223880597015"/>
      <point x="258" y="350" type="qcurve" smooth="yes"/>
      <point x="258.0" y="252.9850746268657"/>
      <point x="386.2089552238806" y="114.0"/>
      <point x="528" y="114" type="qcurve" smooth="yes"/>
    </contour>
  </outline>
</glyph>
<glyph name="Schwa" format="2">
  <advance width="967"/>
  <unicode hex="018F"/>
  <outline>
    <contour>
      <point x="839" y="350" type="qcurve" smooth="yes"/>
      <point x="839.0" y="201"/>
      <point x="630.5223880597015" y="-10.0"/>
      <point x="485" y="-10" type="qcurve" smooth="yes"/>
      <point x="352.1641791044776" y="-10.0"/>
      <point x="135.46268656716418" y="167.47761194029852"/>
      <point x="128" y="313" type="qcurve"/>
      <point x="128" y="393" type="line"/>
      <point x="766" y="393" type="line"/>
      <point x="775" y="296" type="line"/>
      <point x="239" y="296" type="line"/>
      <point x="254.67164179104478" y="208.6865671641791"/>
      <point x="394.70149253731347" y="87.0"/>
      <point x="485" y="87" type="qcurve" smooth="yes"/>
      <point x="585.0" y="87.0"/>
      <point x="729.0" y="230.1044776119403"/>
      <point x="729" y="351" type="qcurve" smooth="yes"/>
      <point x="729.0" y="481.5970149253731"/>
      <point x="582.7462686567164" y="613.0"/>
      <point x="482" y="613" type="qcurve" smooth="yes"/>
      <point x="419.3134328358209" y="613.0"/>
      <point x="311.0149253731343" y="575.0149253731344"/>
      <point x="264" y="528" type="qcurve"/>
      <point x="196" y="588" type="line"/>
      <point x="255.7014925373134" y="654.4179104477612"/>
      <point x="393.94029850746267" y="710.0"/>
      <point x="482" y="710" type="qcurve" smooth="yes"/>
      <point x="628.2686567164179" y="710.0"/>
      <point x="839.0" y="499"/>
    </contour>
  </outline>
</glyph>
<glyph name="florin" format="2">
  <advance width="880"/>
  <unicode hex="0192"/>
  <note>
florin
</note>
  <outline>
    <contour>
      <point x="187" y="-31" type="qcurve" smooth="yes"/>
      <point x="149.6865671641791" y="-31.0"/>
      <point x="94.17910447761194" y="-9.44776119402985"/>
      <point x="80" y="1" type="qcurve"/>
      <point x="111" y="80" type="line"/>
      <point x="131.1492537313433" y="71.7910447761194"/>
      <point x="161.61194029850748" y="65.0"/>
      <point x="184" y="65" type="qcurve" smooth="yes"/>
      <point x="221.3134328358209" y="65.0"/>
      <point x="264.8059701492537" y="108.65671641791045"/>
      <point x="276" y="140" type="qcurve" smooth="yes"/>
      <point x="420" y="546" type="line" smooth="yes"/>
      <point x="444.6268656716418" y="615.4029850746268"/>
      <point x="548.1492537313433" y="700.0"/>
      <point x="628" y="700" type="qcurve" smooth="yes"/>
      <point x="675.7611940298507" y="700.0"/>
      <point x="762.6865671641791" y="673.5820895522388"/>
      <point x="800" y="640" type="qcurve"/>
      <point x="771" y="562" type="line"/>
      <point x="736.6716417910447" y="579.9104477611941"/>
      <point x="679.3582089552239" y="602.0"/>
      <point x="651" y="602" type="qcurve" smooth="yes"/>
      <point x="609.2089552238806" y="602.0"/>
      <point x="553.6716417910447" y="560.2835820895523"/>
      <point x="538" y="517" type="qcurve" smooth="yes"/>
      <point x="391" y="119" type="line" smooth="yes"/>
      <point x="363.3880597014925" y="45.11940298507463"/>
      <point x="268.34328358208955" y="-31.0"/>
    </contour>
    <contour>
      <point x="666" y="346" type="line"/>
      <point x="177" y="347" type="line"/>
      <point x="177" y="445" type="line"/>
      <point x="666" y="444" type="line"/>
    </contour>
  </outline>
</glyph>
<glyph name="Nhookleft" format="2">
  <advance width="1121"/>
  <unicode hex="019D"/>
  <outline>
    <contour>
      <point x="310" y="291" type="qcurve"/>
      <point x="310" y="106" type="line" smooth="yes"/>
      <point x="310" y="-34"/>
      <point x="154" y="-197"/>
      <point x="40" y="-197" type="qcurve"/>
      <point x="1" y="-95" type="line"/>
      <point x="98" y="-95"/>
      <point x="182" y="26"/>
      <point x="182" y="131" type="qcurve" smooth="yes"/>
      <point x="182" y="700" type="line"/>
      <point x="289" y="700" type="line"/>
      <point x="857" y="147" type="line"/>
      <point x="831" y="118" type="line"/>
      <point x="819" y="193"/>
      <point x="811" y="388"/>
      <point x="811" y="470" type="qcurve"/>
      <point x="811" y="700" type="line"/>
      <point x="939" y="700" type="line"/>
      <point x="939" y="0" type="line"/>
      <point x="830" y="0" type="line"/>
      <point x="269" y="532" type="line"/>
      <point x="290" y="566" type="line"/>
      <point x="293" y="531"/>
      <point x="300" y="462"/>
      <point x="303" y="428" type="qcurve" smooth="yes"/>
      <point x="306" y="394"/>
      <point x="310" y="325"/>
    </contour>
  </outline>
</glyph>
<glyph name="oogonek" format="2">
  <advance width="955"/>
  <unicode hex="01EB"/>
  <outline>
    <contour>
      <point x="235" y="263" type="qcurve"/>
      <point x="233" y="185"/>
      <point x="375.76119402985074" y="84.0"/>
      <point x="478" y="84" type="qcurve"/>
      <point x="580.2388059701492" y="84.0"/>
      <point x="722.2388059701492" y="184.64179104477614"/>
      <point x="720" y="263" type="qcurve"/>
      <point x="722.2388059701492" y="342.1044776119403"/>
      <point x="580.2388059701492" y="442.0"/>
      <point x="478" y="442" type="qcurve"/>
      <point x="375.76119402985074" y="442.0"/>
      <point x="233" y="342"/>
    </contour>
    <contour>
      <point x="478" y="-10" type="qcurve"/>
      <point x="324.2686567164179" y="-10.0"/>
      <point x="130.0" y="143.59701492537314"/>
      <point x="130" y="263" type="qcurve"/>
      <point x="130.0" y="382.4029850746268"/>
      <point x="324.2686567164179" y="536.0"/>
      <point x="478" y="536" type="qcurve"/>
      <point x="630.9850746268656" y="536.0"/>
      <point x="825.0" y="382.4029850746268"/>
      <point x="825" y="263" type="qcurve"/>
      <point x="825.0" y="180.16417910447763"/>
      <point x="726.5970149253732" y="57.05970149253731"/>
      <point x="646" y="19" type="qcurve" smooth="yes"/>
      <point x="606.4477611940299" y="0.3432835820895548"/>
      <point x="548.0" y="-43.8955223880597"/>
      <point x="548" y="-73" type="qcurve"/>
      <point x="548.0" y="-97.62686567164178"/>
      <point x="577.5671641791045" y="-124.0"/>
      <point x="591" y="-124" type="qcurve"/>
      <point x="607.4179104477612" y="-124.0"/>
      <point x="634.044776119403" y="-102.43283582089552"/>
      <point x="643" y="-89" type="qcurve"/>
      <point x="688" y="-133" type="line"/>
      <point x="675.3134328358209" y="-156.13432835820896"/>
      <point x="617.2985074626865" y="-201.0"/>
      <point x="577" y="-201" type="qcurve"/>
      <point x="537.4477611940299" y="-201.0"/>
      <point x="467.0" y="-146.22388059701493"/>
      <point x="467" y="-91" type="qcurve"/>
      <point x="467.0" y="-12.641791044776127"/>
      <point x="576.7611940298508" y="62.32835820895522"/>
      <point x="629" y="78" type="qcurve"/>
      <point x="634" y="23" type="line"/>
      <point x="598.179104477612" y="8.82089552238806"/>
      <point x="524.2686567164179" y="-10.0"/>
    </contour>
  </outline>
</glyph>
<glyph name="nhookleft" format="2">
  <advance width="1091"/>
  <unicode hex="0272"/>
  <anchor x="584" y="0" name="bottom"/>
  <anchor x="604" y="525" name="top"/>
  <outline>
    <contour>
      <point x="621" y="536" type="qcurve"/>
      <point x="745" y="536"/>
      <point x="871" y="403"/>
      <point x="871" y="310" type="qcurve"/>
      <point x="871" y="0" type="line"/>
      <point x="768" y="0" type="line"/>
      <point x="768" y="293" type="line"/>
      <point x="768" y="358"/>
      <point x="667" y="440"/>
      <point x="597" y="440" type="qcurve" smooth="yes"/>
      <point x="511" y="440"/>
      <point x="399" y="329"/>
      <point x="399" y="278" type="qcurve"/>
      <point x="399" y="0" type="line"/>
      <point x="365" y="0.0"/>
      <point x="330" y="0.0"/>
      <point x="296" y="0" type="qcurve"/>
      <point x="296" y="525" type="line"/>
      <point x="399" y="525" type="line"/>
      <point x="399" y="377" type="line"/>
      <point x="361" y="375" type="line"/>
      <point x="395" y="431"/>
      <point x="526" y="536"/>
    </contour>
    <contour>
      <point x="296" y="0" type="qcurve"/>
      <point x="399" y="14" type="line"/>
      <point x="399" y="-25" type="line"/>
      <point x="399" y="-104"/>
      <point x="243" y="-197"/>
      <point x="129" y="-197" type="qcurve"/>
      <point x="90" y="-105" type="line"/>
      <point x="197" y="-105"/>
      <point x="296" y="-49"/>
    </contour>
  </outline>
</glyph>
<glyph name="ringhalfright" format="2">
  <advance width="251"/>
  <unicode hex="02BE"/>
  <outline>
    <contour>
      <point x="62" y="530" type="qcurve"/>
      <point x="62" y="591" type="line"/>
      <point x="82.14925373134328" y="591.0"/>
      <point x="109.0" y="615.5970149253732"/>
      <point x="109" y="635" type="qcurve"/>
      <point x="109.0" y="656.6417910447761"/>
      <point x="80.65671641791045" y="679.0"/>
      <point x="62" y="679" type="qcurve"/>
      <point x="63" y="741" type="line"/>
      <point x="105.53731343283582" y="740.2537313432836"/>
      <point x="171.0" y="678.2835820895523"/>
      <point x="171" y="635" type="qcurve"/>
      <point x="171.0" y="592.4626865671642"/>
      <point x="105" y="530.0"/>
    </contour>
  </outline>
</glyph>
<glyph name="ringhalfleft" format="2">
  <advance width="222"/>
  <unicode hex="02BF"/>
  <outline>
    <contour>
      <point x="142" y="591" type="qcurve"/>
      <point x="142" y="530" type="line"/>
      <point x="106.92537313432837" y="530.0"/>
      <point x="32.0" y="586.4925373134329"/>
      <point x="32" y="635" type="qcurve"/>
      <point x="32.0" y="678.2835820895523"/>
      <point x="97.46268656716418" y="740.2537313432836"/>
      <point x="140" y="741" type="qcurve"/>
      <point x="142" y="679" type="line"/>
      <point x="127.07462686567165" y="679.0"/>
      <point x="94.0" y="660.3731343283582"/>
      <point x="94" y="635" type="qcurve"/>
      <point x="94.0" y="615.5970149253732"/>
      <point x="121" y="591.0"/>
    </contour>
  </outline>
</glyph>
<glyph name="caron" format="2">
  <advance width="396"/>
  <unicode hex="02C7"/>
  <anchor x="197" y="515" name="_top"/>
  <outline>
    <contour>
      <point x="213" y="660" type="line"/>
      <point x="183" y="660" type="line"/>
      <point x="308" y="733" type="line"/>
      <point x="346" y="700" type="line"/>
      <point x="241" y="587" type="line"/>
      <point x="155" y="587" type="line"/>
      <point x="50" y="700" type="line"/>
      <point x="88" y="733" type="line"/>
    </contour>
  </outline>
</glyph>
<glyph name="verticallinemod" format="2">
  <advance width="231"/>
  <unicode hex="02C8"/>
  <outline>
    <contour>
      <point x="164" y="712" type="line"/>
      <point x="164" y="368" type="line"/>
      <point x="67" y="368" type="line"/>
      <point x="67" y="712" type="line"/>
    </contour>
  </outline>
</glyph>
<glyph name="verticallinelowmod" format="2">
  <advance width="231"/>
  <unicode hex="02CC"/>
  <outline>
    <contour>
      <point x="164" y="197" type="line"/>
      <point x="164" y="-147" type="line"/>
      <point x="67" y="-147" type="line"/>
      <point x="67" y="197" type="line"/>
    </contour>
  </outline>
</glyph>
<glyph name="breve" format="2">
  <advance width="424"/>
  <unicode hex="02D8"/>
  <anchor x="218" y="548" name="_top"/>
  <outline>
    <contour>
      <point x="212" y="570" type="qcurve" smooth="yes"/>
      <point x="150.05970149253733" y="570.0"/>
      <point x="63.43283582089552" y="655.3432835820895"/>
      <point x="50" y="724" type="qcurve"/>
      <point x="124" y="736" type="line"/>
      <point x="135.19402985074626" y="703.9104477611941"/>
      <point x="180.65671641791045" y="651.0"/>
      <point x="212" y="651" type="qcurve" smooth="yes"/>
      <point x="243.34328358208955" y="651.0"/>
      <point x="288.8059701492537" y="703.9104477611941"/>
      <point x="300" y="736" type="qcurve"/>
      <point x="374" y="724" type="line"/>
      <point x="360.56716417910445" y="655.3432835820895"/>
      <point x="273.94029850746267" y="570.0"/>
    </contour>
  </outline>
</glyph>
<glyph name="dotaccent" format="2">
  <advance width="258"/>
  <unicode hex="02D9"/>
  <outline>
    <contour>
      <point x="198" y="690" type="qcurve" smooth="yes"/>
      <point x="198" y="665"/>
      <point x="164" y="625"/>
      <point x="129" y="625" type="qcurve" smooth="yes"/>
      <point x="94" y="625"/>
      <point x="60" y="661"/>
      <point x="60" y="690" type="qcurve" smooth="yes"/>
      <point x="60" y="715"/>
      <point x="94" y="755"/>
      <point x="129" y="755" type="qcurve" smooth="yes"/>
      <point x="164" y="755"/>
      <point x="198" y="719"/>
    </contour>
  </outline>
</glyph>
<glyph name="ring" format="2">
  <advance width="336"/>
  <unicode hex="02DA"/>
  <outline>
    <contour>
      <point x="269" y="679" type="qcurve"/>
      <point x="269.0" y="636"/>
      <point x="202" y="574.0"/>
      <point x="159" y="574" type="qcurve"/>
      <point x="116" y="574.0"/>
      <point x="50.0" y="636"/>
      <point x="50" y="679" type="qcurve"/>
      <point x="50.0" y="723"/>
      <point x="116" y="785.0"/>
      <point x="159" y="785" type="qcurve"/>
      <point x="202" y="785.0"/>
      <point x="269.0" y="723"/>
    </contour>
    <contour>
      <point x="110" y="679" type="qcurve"/>
      <point x="110.0" y="660"/>
      <point x="139" y="633.0"/>
      <point x="159" y="633" type="qcurve"/>
      <point x="180" y="633.0"/>
      <point x="209.0" y="660"/>
      <point x="209" y="679" type="qcurve"/>
      <point x="209.0" y="701"/>
      <point x="178" y="726.0"/>
      <point x="159" y="726" type="qcurve"/>
      <point x="139" y="726.0"/>
      <point x="110.0" y="700"/>
    </contour>
  </outline>
</glyph>
<glyph name="ogonek" format="2">
  <advance width="295"/>
  <unicode hex="02DB"/>
  <outline>
    <contour>
      <point x="139" y="-201" type="qcurve" smooth="yes"/>
      <point x="98" y="-201.0"/>
      <point x="30.0" y="-142"/>
      <point x="30" y="-98" type="qcurve" smooth="yes"/>
      <point x="30.0" y="-36"/>
      <point x="134" y="36"/>
      <point x="185" y="50" type="qcurve"/>
      <point x="229" y="43" type="line"/>
      <point x="229" y="-1" type="line"/>
      <point x="189" y="-10"/>
      <point x="121.0" y="-59"/>
      <point x="121" y="-88" type="qcurve" smooth="yes"/>
      <point x="121.0" y="-104"/>
      <point x="139" y="-124.0"/>
      <point x="155" y="-124" type="qcurve" smooth="yes"/>
      <point x="168" y="-124.0"/>
      <point x="186" y="-109"/>
      <point x="192" y="-99" type="qcurve"/>
      <point x="248" y="-139" type="line"/>
      <point x="240" y="-160"/>
      <point x="179" y="-201.0"/>
    </contour>
  </outline>
</glyph>
<glyph name="tilde" format="2">
  <advance width="421"/>
  <unicode hex="02DC"/>
  <outline>
    <contour>
      <point x="123" y="617" type="qcurve"/>
      <point x="50" y="627" type="line"/>
      <point x="52" y="676"/>
      <point x="111" y="748"/>
      <point x="160" y="748" type="qcurve" smooth="yes"/>
      <point x="184" y="748"/>
      <point x="216" y="728"/>
      <point x="228" y="716" type="qcurve" smooth="yes"/>
      <point x="239" y="704"/>
      <point x="259" y="686"/>
      <point x="270" y="686" type="qcurve"/>
      <point x="281" y="686"/>
      <point x="299" y="713"/>
      <point x="298" y="736" type="qcurve"/>
      <point x="371" y="720" type="line"/>
      <point x="369" y="683"/>
      <point x="318" y="614"/>
      <point x="270" y="614" type="qcurve"/>
      <point x="240" y="614"/>
      <point x="202" y="639"/>
      <point x="189" y="652" type="qcurve" smooth="yes"/>
      <point x="180" y="661"/>
      <point x="165" y="675"/>
      <point x="158" y="675" type="qcurve" smooth="yes"/>
      <point x="142" y="675"/>
      <point x="123" y="648"/>
    </contour>
  </outline>
</glyph>
<glyph name="hungarumlaut" format="2">
  <advance width="507"/>
  <unicode hex="02DD"/>
  <anchor x="188" y="515" name="_top"/>
  <outline>
    <contour>
      <point x="258" y="677" type="line"/>
      <point x="84" y="583" type="line"/>
      <point x="50" y="634" type="line"/>
      <point x="193" y="759" type="line"/>
    </contour>
    <contour>
      <point x="457" y="677" type="line"/>
      <point x="283" y="583" type="line"/>
      <point x="249" y="634" type="line"/>
      <point x="392" y="759" type="line"/>
    </contour>
  </outline>
</glyph>
<glyph name="dotaccentcomb" format="2">
  <unicode hex="0307"/>
  <anchor x="128" y="511" name="_top"/>
  <anchor x="128" y="751" name="top"/>
  <outline>
    <contour>
      <point x="198" y="660" type="qcurve" smooth="yes"/>
      <point x="198.0" y="635"/>
      <point x="164" y="595.0"/>
      <point x="129" y="595" type="qcurve" smooth="yes"/>
      <point x="94" y="595.0"/>
      <point x="60.0" y="631"/>
      <point x="60" y="660" type="qcurve" smooth="yes"/>
      <point x="60.0" y="685"/>
      <point x="94" y="725.0"/>
      <point x="129" y="725" type="qcurve" smooth="yes"/>
      <point x="164" y="725.0"/>
      <point x="198.0" y="689"/>
    </contour>
  </outline>
</glyph>
<glyph name="ringcomb" format="2">
  <unicode hex="030A"/>
  <outline>
    <contour>
      <point x="269" y="679" type="qcurve"/>
      <point x="269.0" y="636"/>
      <point x="202.28358208955223" y="574.0"/>
      <point x="159" y="574" type="qcurve"/>
      <point x="116.46268656716418" y="574.0"/>
      <point x="50.0" y="636.4626865671642"/>
      <point x="50" y="679" type="qcurve"/>
      <point x="50.0" y="723.0298507462686"/>
      <point x="116.46268656716418" y="785.0"/>
      <point x="159" y="785" type="qcurve"/>
      <point x="202.28358208955223" y="785.0"/>
      <point x="269.0" y="723"/>
    </contour>
    <contour>
      <point x="110" y="679" type="qcurve"/>
      <point x="110.0" y="660"/>
      <point x="138.8507462686567" y="633.0"/>
      <point x="159" y="633" type="qcurve"/>
      <point x="179.8955223880597" y="633.0"/>
      <point x="209.0" y="659.5970149253732"/>
      <point x="209" y="679" type="qcurve"/>
      <point x="209.0" y="701.3880597014926"/>
      <point x="178.40298507462686" y="726.0"/>
      <point x="159" y="726" type="qcurve"/>
      <point x="138.8507462686567" y="726.0"/>
      <point x="110.0" y="700"/>
    </contour>
  </outline>
</glyph>
<glyph name="pi" format="2">
  <advance width="994"/>
  <unicode hex="03C0"/>
  <note>
pi
</note>
  <outline>
    <contour>
      <point x="355" y="0" type="line"/>
      <point x="264" y="0" type="line"/>
      <point x="264" y="476" type="line"/>
      <point x="281" y="425" type="line"/>
      <point x="120" y="425" type="line"/>
      <point x="120" y="526" type="line"/>
      <point x="874" y="526" type="line"/>
      <point x="874" y="425" type="line"/>
      <point x="721" y="425" type="line"/>
      <point x="730" y="438" type="line"/>
      <point x="730" y="0" type="line"/>
      <point x="639" y="0" type="line"/>
      <point x="639" y="460" type="line"/>
      <point x="649" y="425" type="line"/>
      <point x="342" y="425" type="line"/>
      <point x="355" y="438" type="line"/>
    </contour>
  </outline>
</glyph>
<glyph name="dal-ar" format="2">
  <advance width="936"/>
  <unicode hex="062F"/>
  <outline>
    <contour>
      <point x="135" y="0" type="line"/>
      <point x="116" y="102" type="line"/>
      <point x="670" y="102" type="line"/>
      <point x="652.0895522388059" y="175.13432835820896"/>
      <point x="519.8507462686567" y="304.65671641791045"/>
      <point x="390" y="386" type="qcurve"/>
      <point x="464" y="487" type="line"/>
      <point x="625.1940298507462" y="378.7910447761194"/>
      <point x="778.8955223880597" y="149.25373134328356"/>
      <point x="758" y="0" type="qcurve"/>
    </contour>
  </outline>
</glyph>
<glyph name="seen-ar" format="2">
  <advance width="1884"/>
  <unicode hex="0633"/>
  <anchor x="1181" y="0" name="bottom"/>
  <anchor x="1207" y="333" name="top"/>
  <outline>
    <contour>
      <point x="1188" y="136" type="qcurve"/>
      <point x="1133" y="68" type="line"/>
      <point x="1171.0597014925372" y="42.626865671641795"/>
      <point x="1278.402985074627" y="0.0"/>
      <point x="1359" y="0" type="qcurve" smooth="yes"/>
      <point x="1653" y="0" type="line"/>
      <point x="1700.0149253731342" y="131.34328358208955"/>
      <point x="1643.2089552238806" y="343.22388059701495"/>
      <point x="1585" y="438" type="qcurve"/>
      <point x="1494" y="346" type="line"/>
      <point x="1542.5074626865671" y="284.05970149253733"/>
      <point x="1589.0" y="169.16417910447763"/>
      <point x="1589" y="102" type="qcurve"/>
      <point x="1336" y="102" type="line" smooth="yes"/>
      <point x="1291.9701492537313" y="102.0"/>
      <point x="1217.1044776119402" y="119.58208955223881"/>
    </contour>
    <contour>
      <point x="872" y="102" type="line"/>
      <point x="1094" y="102" type="line"/>
      <point x="1111.1641791044776" y="130.3582089552239"/>
      <point x="1142.2686567164178" y="242.73134328358208"/>
      <point x="1146" y="289" type="qcurve"/>
      <point x="1267" y="331" type="line"/>
      <point x="1245.358208955224" y="227.26865671641792"/>
      <point x="1180.4925373134329" y="76.11940298507461"/>
      <point x="1129" y="0" type="qcurve"/>
      <point x="872" y="0" type="line"/>
    </contour>
    <component base="noonghunna-ar"/>
  </outline>
</glyph>
<glyph name="sad-ar" format="2">
  <advance width="2119"/>
  <unicode hex="0635"/>
  <outline>
    <contour>
      <point x="1093" y="0" type="line"/>
      <point x="1093" y="102" type="line"/>
      <point x="1820" y="102" type="line"/>
      <point x="1821.4925373134329" y="210.2089552238806"/>
      <point x="1706.2089552238806" y="334.0"/>
      <point x="1598" y="334" type="qcurve" smooth="yes"/>
      <point x="1477.8507462686566" y="334.0"/>
      <point x="1224.0149253731342" y="168.71641791044775"/>
      <point x="1127" y="12" type="qcurve"/>
      <point x="1057" y="94" type="line"/>
      <point x="1177.1492537313434" y="267.1343283582089"/>
      <point x="1464.4776119402986" y="438.0"/>
      <point x="1610" y="438" type="qcurve" smooth="yes"/>
      <point x="1784.6268656716418" y="438.0"/>
      <point x="1943.2985074626865" y="182.08955223880596"/>
      <point x="1903" y="0" type="qcurve"/>
    </contour>
    <component base="noonghunna-ar.fina"/>
  </outline>
</glyph>
<glyph name="tah-ar" format="2">
  <advance width="1298"/>
  <unicode hex="0637"/>
  <anchor x="1081" y="0" name="#entry"/>
  <anchor x="644" y="0" name="bottom"/>
  <anchor x="757" y="438" name="top"/>
  <outline>
    <contour>
      <point x="87" y="0" type="line"/>
      <point x="87" y="102" type="line"/>
      <point x="998" y="102" type="line"/>
      <point x="999.4925373134329" y="210.2089552238806"/>
      <point x="896.4925373134329" y="334.0"/>
      <point x="795" y="334" type="qcurve" smooth="yes"/>
      <point x="676.3432835820896" y="334.0"/>
      <point x="430.3731343283582" y="157.52238805970148"/>
      <point x="305" y="12" type="qcurve"/>
      <point x="299" y="148" type="line"/>
      <point x="399.74626865671644" y="265.910447761194"/>
      <point x="662.223880597015" y="438.0"/>
      <point x="807" y="438" type="qcurve" smooth="yes"/>
      <point x="974.9104477611941" y="438.0"/>
      <point x="1121.2985074626865" y="182.08955223880596"/>
      <point x="1081" y="0" type="qcurve"/>
    </contour>
    <contour>
      <point x="283" y="0" type="line"/>
      <point x="283" y="738" type="line"/>
      <point x="387" y="740" type="line"/>
      <point x="387" y="0" type="line"/>
    </contour>
  </outline>
</glyph>
<glyph name="kaf-ar" format="2">
  <advance width="1425"/>
  <unicode hex="0643"/>
  <outline>
    <contour>
      <point x="1109" y="740" type="line"/>
      <point x="1213" y="740" type="line"/>
      <point x="1213" y="0" type="line"/>
      <point x="1109" y="0" type="line"/>
    </contour>
    <contour>
      <point x="1142" y="102" type="line"/>
      <point x="381" y="102" type="line" smooth="yes"/>
      <point x="298.1641791044776" y="102.0"/>
      <point x="191.0" y="152.86567164179104"/>
      <point x="191" y="226" type="qcurve" smooth="yes"/>
      <point x="191.0" y="255.1044776119403"/>
      <point x="207.11940298507463" y="324.76119402985074"/>
      <point x="231" y="377" type="qcurve"/>
      <point x="151" y="413" type="line"/>
      <point x="115.17910447761194" y="351.80597014925377"/>
      <point x="87.0" y="245.28358208955223"/>
      <point x="87" y="202" type="qcurve" smooth="yes"/>
      <point x="87.0" y="107.97014925373135"/>
      <point x="226.61194029850748" y="0.0"/>
      <point x="349" y="0" type="qcurve" smooth="yes"/>
      <point x="1136" y="0" type="line"/>
    </contour>
    <component base="hamzaabove-ar" xScale="1.2" yScale="1.2" xOffset="467" yOffset="-461"/>
  </outline>
</glyph>
<glyph name="meem-ar" format="2">
  <advance width="835"/>
  <unicode hex="0645"/>
  <outline>
    <contour>
      <point x="593" y="0" type="line"/>
      <point x="539" y="55" type="line"/>
      <point x="531.5373134328358" y="162.46268656716416"/>
      <point x="425.64179104477614" y="284.0"/>
      <point x="354" y="284" type="qcurve" smooth="yes"/>
      <point x="304.0" y="284.0"/>
      <point x="244.44776119402985" y="227.0597014925373"/>
      <point x="234" y="189" type="qcurve"/>
      <point x="282" y="197" type="line"/>
      <point x="120" y="260" type="line"/>
      <point x="149" y="206" type="line"/>
      <point x="163.92537313432837" y="281.3731343283582"/>
      <point x="272.92537313432837" y="386.0"/>
      <point x="358" y="386" type="qcurve" smooth="yes"/>
      <point x="470.6865671641791" y="386.0"/>
      <point x="616.3283582089553" y="233.0597014925373"/>
      <point x="632" y="95" type="qcurve"/>
    </contour>
    <contour>
      <point x="87" y="-56" type="qcurve" smooth="yes"/>
      <point x="87.0" y="-21.671641791044777"/>
      <point x="105.86567164179104" y="36.626865671641795"/>
      <point x="129" y="62" type="qcurve" smooth="yes"/>
      <point x="160.34328358208955" y="97.07462686567163"/>
      <point x="283.4029850746269" y="123.0"/>
      <point x="364" y="123" type="qcurve" smooth="yes"/>
      <point x="431.1641791044776" y="123.0"/>
      <point x="567.3880597014926" y="108.71641791044776"/>
      <point x="595" y="102" type="qcurve"/>
      <point x="593" y="0" type="line"/>
      <point x="560.1641791044776" y="8.955223880597014"/>
      <point x="407.17910447761193" y="26.0"/>
      <point x="343" y="26" type="qcurve" smooth="yes"/>
      <point x="295.9850746268657" y="26.0"/>
      <point x="184.86567164179104" y="10.432835820895521"/>
      <point x="158" y="-3" type="qcurve"/>
      <point x="191" y="32" type="line"/>
      <point x="192.49253731343285" y="-86.65671641791043"/>
      <point x="240.34328358208955" y="-343.7313432835821"/>
      <point x="209" y="-490" type="qcurve"/>
      <point x="224" y="-456" type="line"/>
      <point x="98" y="-446" type="line"/>
      <point x="130" y="-466" type="line"/>
      <point x="134.47761194029852" y="-292.8656716417911"/>
      <point x="87.0" y="-80.62686567164178"/>
    </contour>
  </outline>
</glyph>
<glyph name="alefMaksura-ar" format="2">
  <advance width="1167"/>
  <unicode hex="0649"/>
  <anchor x="538" y="-230" name="bottom"/>
  <anchor x="234" y="223" name="top"/>
  <outline>
    <contour>
      <point x="918" y="-26" type="qcurve" smooth="yes"/>
      <point x="918.0" y="-3.611940298507463"/>
      <point x="822.6716417910447" y="35.59701492537314"/>
      <point x="757" y="55" type="qcurve" smooth="yes"/>
      <point x="653.2686567164179" y="85.59701492537313"/>
      <point x="542.0" y="165.1044776119403"/>
      <point x="542" y="236" type="qcurve" smooth="yes"/>
      <point x="542.0" y="324.8059701492537"/>
      <point x="696.4029850746269" y="439.0"/>
      <point x="827" y="439" type="qcurve" smooth="yes"/>
      <point x="889.6865671641791" y="439.0"/>
      <point x="1005.6417910447761" y="415.6865671641791"/>
      <point x="1034" y="403" type="qcurve"/>
      <point x="999" y="307" type="line"/>
      <point x="967.6567164179105" y="319.6865671641791"/>
      <point x="878.4925373134329" y="337.0"/>
      <point x="827" y="337" type="qcurve" smooth="yes"/>
      <point x="738.9402985074627" y="337.0"/>
      <point x="646.0" y="284.56716417910445"/>
      <point x="646" y="248" type="qcurve" smooth="yes"/>
      <point x="646.0" y="209.9402985074627"/>
      <point x="738.1343283582089" y="163.38805970149252"/>
      <point x="815" y="141" type="qcurve" smooth="yes"/>
      <point x="929.1791044776119" y="107.41791044776119"/>
      <point x="1014.0" y="45.70149253731343"/>
      <point x="1014" y="-14" type="qcurve" smooth="yes"/>
      <point x="1014.0" y="-119.97014925373134"/>
      <point x="755.9104477611941" y="-230.0"/>
      <point x="538" y="-230" type="qcurve" smooth="yes"/>
      <point x="354.4179104477612" y="-230.0"/>
      <point x="87.0" y="-110.58208955223878"/>
      <point x="87" y="23" type="qcurve" smooth="yes"/>
      <point x="87.0" y="68.52238805970148"/>
      <point x="113.91044776119404" y="182.83582089552237"/>
      <point x="146" y="250" type="qcurve"/>
      <point x="90" y="228" type="line"/>
      <point x="267" y="169" type="line"/>
      <point x="234" y="223" type="line"/>
      <point x="210.86567164179104" y="168.52238805970148"/>
      <point x="188.0" y="72.32835820895522"/>
      <point x="188" y="38" type="qcurve" smooth="yes"/>
      <point x="188.0" y="-51.55223880597015"/>
      <point x="398.25373134328356" y="-128.0"/>
      <point x="549" y="-128" type="qcurve" smooth="yes"/>
      <point x="724.3731343283582" y="-128.0"/>
      <point x="918.0" y="-68.53731343283582"/>
    </contour>
  </outline>
</glyph>
<glyph name="dammatan-ar" format="2">
  <unicode hex="064C"/>
  <anchor x="146" y="525" name="_top"/>
  <anchor x="146" y="842" name="top"/>
  <outline>
    <contour>
      <point x="229" y="781" type="qcurve"/>
      <point x="252" y="741" type="line"/>
      <point x="237.82089552238807" y="732.7910447761194"/>
      <point x="201.91044776119404" y="724.0"/>
      <point x="184" y="724" type="qcurve" smooth="yes"/>
      <point x="145.1940298507463" y="724.0"/>
      <point x="98.0" y="763.4179104477612"/>
      <point x="98" y="797" type="qcurve" smooth="yes"/>
      <point x="98.0" y="835.0597014925373"/>
      <point x="148.17910447761193" y="891.0"/>
      <point x="184" y="891" type="qcurve" smooth="yes"/>
      <point x="228.77611940298507" y="891.0"/>
      <point x="272.0" y="819.5074626865671"/>
      <point x="272" y="771" type="qcurve" smooth="yes"/>
      <point x="272.0" y="706.8208955223881"/>
      <point x="207.97014925373134" y="635.0"/>
      <point x="152" y="635" type="qcurve" smooth="yes"/>
      <point x="124.38805970149254" y="635.0"/>
      <point x="78.92537313432835" y="655.3432835820895"/>
      <point x="64" y="674" type="qcurve"/>
      <point x="105" y="664" type="line"/>
      <point x="55" y="610" type="line"/>
      <point x="20" y="642" type="line"/>
      <point x="85" y="713" type="line"/>
      <point x="101.41791044776119" y="698.0746268656717"/>
      <point x="137.07462686567163" y="685.0"/>
      <point x="152" y="685" type="qcurve" smooth="yes"/>
      <point x="182.59701492537312" y="685.0"/>
      <point x="227.0" y="725.4477611940299"/>
      <point x="227" y="765" type="qcurve" smooth="yes"/>
      <point x="227.0" y="800.0746268656717"/>
      <point x="201.91044776119404" y="841.0"/>
      <point x="184" y="841" type="qcurve" smooth="yes"/>
      <point x="167.5820895522388" y="841.0"/>
      <point x="148.0" y="818.4328358208955"/>
      <point x="148" y="805" type="qcurve" smooth="yes"/>
      <point x="148.0" y="791.5671641791045"/>
      <point x="167.59701492537314" y="774.0"/>
      <point x="187" y="774" type="qcurve" smooth="yes"/>
      <point x="198.19402985074626" y="774.0"/>
      <point x="217.05970149253733" y="776.5223880597015"/>
    </contour>
  </outline>
</glyph>
<glyph name="madda-ar" format="2">
  <unicode hex="0653"/>
  <anchor x="231" y="525" name="_top"/>
  <anchor x="231" y="765" name="top"/>
  <outline>
    <contour>
      <point x="445" y="687" type="line"/>
      <point x="422.6119402985075" y="663.1194029850747"/>
      <point x="365.08955223880594" y="644.0"/>
      <point x="333" y="644" type="qcurve" smooth="yes"/>
      <point x="271.05970149253733" y="644.0"/>
      <point x="191.02985074626866" y="696.0"/>
      <point x="147" y="696" type="qcurve" smooth="yes"/>
      <point x="122.37313432835822" y="696.0"/>
      <point x="82.40298507462686" y="677.4029850746268"/>
      <point x="63" y="658" type="qcurve"/>
      <point x="25" y="710" type="line"/>
      <point x="60.07462686567164" y="749.5522388059701"/>
      <point x="116.41791044776119" y="776.0"/>
      <point x="150" y="776" type="qcurve" smooth="yes"/>
      <point x="200.7462686567164" y="776.0"/>
      <point x="281.04477611940297" y="724.0"/>
      <point x="340" y="724" type="qcurve" smooth="yes"/>
      <point x="361.64179104477614" y="724.0"/>
      <point x="402.34328358208955" y="737.8059701492538"/>
      <point x="421" y="749" type="qcurve"/>
    </contour>
  </outline>
</glyph>
<glyph name="hamzaabove-ar" format="2">
  <unicode hex="0654"/>
  <anchor x="190" y="525" name="_top"/>
  <anchor x="184" y="768" name="top"/>
  <outline>
    <contour>
      <point x="297" y="692" type="line"/>
      <point x="297" y="635" type="line"/>
      <point x="42" y="635" type="line"/>
      <point x="42" y="692" type="line"/>
      <point x="91" y="692" type="line"/>
      <point x="84.28358208955224" y="701.7014925373135"/>
      <point x="77.0" y="724.0597014925373"/>
      <point x="77" y="736" type="qcurve" smooth="yes"/>
      <point x="77.0" y="774.8059701492538"/>
      <point x="136.53731343283582" y="825.0"/>
      <point x="194" y="825" type="qcurve" smooth="yes"/>
      <point x="215.6417910447761" y="825.0"/>
      <point x="262.05970149253733" y="815.9701492537314"/>
      <point x="274" y="810" type="qcurve"/>
      <point x="258" y="759" type="line"/>
      <point x="247.55223880597015" y="761.9850746268656"/>
      <point x="218.1492537313433" y="768.0"/>
      <point x="198" y="768" type="qcurve" smooth="yes"/>
      <point x="161.43283582089552" y="768.0"/>
      <point x="135.0" y="747.9253731343283"/>
      <point x="135" y="733" type="qcurve" smooth="yes"/>
      <point x="135.0" y="718.820895522388"/>
      <point x="168.26865671641792" y="692.0"/>
      <point x="222" y="692" type="qcurve" smooth="yes"/>
    </contour>
  </outline>
</glyph>
<glyph name="hamzabelow-ar" format="2">
  <unicode hex="0655"/>
  <anchor x="187" y="0" name="_bottom"/>
  <anchor x="187" y="-250" name="bottom"/>
  <outline>
    <contour>
      <point x="297" y="-193" type="line"/>
      <point x="297" y="-250" type="line"/>
      <point x="42" y="-250" type="line"/>
      <point x="42" y="-193" type="line"/>
      <point x="91" y="-193" type="line"/>
      <point x="84.28358208955224" y="-183.29850746268656"/>
      <point x="77.0" y="-160.94029850746267"/>
      <point x="77" y="-149" type="qcurve" smooth="yes"/>
      <point x="77.0" y="-110.19402985074628"/>
      <point x="136.53731343283582" y="-60.0"/>
      <point x="194" y="-60" type="qcurve" smooth="yes"/>
      <point x="215.6417910447761" y="-60.0"/>
      <point x="262.05970149253733" y="-69.02985074626866"/>
      <point x="274" y="-75" type="qcurve"/>
      <point x="258" y="-126" type="line"/>
      <point x="247.55223880597015" y="-123.01492537313433"/>
      <point x="218.1492537313433" y="-117.0"/>
      <point x="198" y="-117" type="qcurve" smooth="yes"/>
      <point x="161.43283582089552" y="-117.0"/>
      <point x="135.0" y="-137.07462686567163"/>
      <point x="135" y="-152" type="qcurve" smooth="yes"/>
      <point x="135.0" y="-166.17910447761193"/>
      <point x="168.26865671641792" y="-193.0"/>
      <point x="222" y="-193" type="qcurve" smooth="yes"/>
    </contour>
  </outline>
</glyph>
<glyph name="three-ar" format="2">
  <advance width="969"/>
  <unicode hex="0663"/>
  <outline>
    <contour>
      <point x="714" y="410" type="qcurve" smooth="yes"/>
      <point x="622.955223880597" y="410.0"/>
      <point x="534.0" y="498.1044776119403"/>
      <point x="534" y="569" type="qcurve" smooth="yes"/>
      <point x="534" y="623" type="line"/>
      <point x="638" y="623" type="line"/>
      <point x="638" y="569" type="line" smooth="yes"/>
      <point x="638.0" y="538.4029850746268"/>
      <point x="670.179104477612" y="512.0"/>
      <point x="706" y="512" type="qcurve" smooth="yes"/>
      <point x="746.2985074626865" y="512.0"/>
      <point x="778.0" y="543.6567164179105"/>
      <point x="778" y="575" type="qcurve" smooth="yes"/>
      <point x="778" y="661" type="line"/>
      <point x="882" y="661" type="line"/>
      <point x="882" y="575" type="line" smooth="yes"/>
      <point x="882.0" y="481.7164179104478"/>
      <point x="778.9253731343283" y="410.0"/>
    </contour>
    <contour>
      <point x="290" y="0" type="line"/>
      <point x="290" y="661" type="line"/>
      <point x="394" y="661" type="line"/>
      <point x="394" y="0" type="line"/>
    </contour>
    <contour>
      <point x="476" y="410" type="qcurve" smooth="yes"/>
      <point x="397.64179104477614" y="410.0"/>
      <point x="290.0" y="502.6119402985075"/>
      <point x="290" y="575" type="qcurve" smooth="yes"/>
      <point x="290" y="661" type="line"/>
      <point x="394" y="661" type="line"/>
      <point x="394" y="575" type="line" smooth="yes"/>
      <point x="394.0" y="543.6567164179105"/>
      <point x="425.7014925373134" y="512.0"/>
      <point x="466" y="512" type="qcurve" smooth="yes"/>
      <point x="501.07462686567163" y="512.0"/>
      <point x="534.0" y="538.4029850746268"/>
      <point x="534" y="569" type="qcurve" smooth="yes"/>
      <point x="534" y="623" type="line"/>
      <point x="638" y="623" type="line"/>
      <point x="638" y="569" type="line" smooth="yes"/>
      <point x="638.0" y="498.1044776119403"/>
      <point x="553.6119402985074" y="410.0"/>
    </contour>
  </outline>
</glyph>
<glyph name="six-ar" format="2">
  <advance width="761"/>
  <unicode hex="0666"/>
  <outline>
    <contour>
      <point x="529" y="0" type="line"/>
      <point x="425" y="0" type="line"/>
      <point x="425" y="375" type="line" smooth="yes"/>
      <point x="425.0" y="489.92537313432837"/>
      <point x="351.46268656716416" y="559.0"/>
      <point x="244" y="559" type="qcurve" smooth="yes"/>
      <point x="29" y="559" type="line"/>
      <point x="29" y="661" type="line"/>
      <point x="244" y="661" type="line" smooth="yes"/>
      <point x="406.6865671641791" y="661.0"/>
      <point x="529.0" y="536.9402985074627"/>
      <point x="529" y="375" type="qcurve" smooth="yes"/>
    </contour>
  </outline>
</glyph>
<glyph name="eight-ar" format="2">
  <advance width="733"/>
  <unicode hex="0668"/>
  <outline>
    <contour>
      <point x="675" y="0" type="line"/>
      <point x="560" y="0" type="line"/>
      <point x="338" y="657" type="line"/>
      <point x="398" y="657" type="line"/>
      <point x="176" y="0" type="line"/>
      <point x="58" y="0" type="line"/>
      <point x="308" y="661" type="line"/>
      <point x="428" y="661" type="line"/>
    </contour>
  </outline>
</glyph>
<glyph name="behDotless-ar" format="2">
  <advance width="1614"/>
  <unicode hex="066E"/>
  <outline>
    <contour>
      <point x="1115" y="0" type="line"/>
      <point x="385" y="0" type="line" smooth="yes"/>
      <point x="240.97014925373136" y="0.0"/>
      <point x="90.0" y="107.97014925373135"/>
      <point x="90" y="202" type="qcurve" smooth="yes"/>
      <point x="90.0" y="245.28358208955223"/>
      <point x="118.17910447761194" y="351.80597014925377"/>
      <point x="154" y="413" type="qcurve"/>
      <point x="234" y="377" type="line"/>
      <point x="210.11940298507463" y="324.76119402985074"/>
      <point x="194.0" y="255.1044776119403"/>
      <point x="194" y="226" type="qcurve" smooth="yes"/>
      <point x="194.0" y="152.86567164179104"/>
      <point x="316.8358208955224" y="102.0"/>
      <point x="434" y="102" type="qcurve" smooth="yes"/>
      <point x="1038" y="102" type="line"/>
    </contour>
    <component base="behDotless-ar.init" xScale="0.99342" yScale="0.99342" xOffset="1024" yOffset="1"/>
  </outline>
</glyph>
<glyph name="fehDotless-ar" format="2">
  <advance width="1604"/>
  <unicode hex="06A1"/>
  <outline>
    <contour>
      <point x="751" y="0" type="line"/>
      <point x="349" y="0" type="line" smooth="yes"/>
      <point x="226.61194029850748" y="0.0"/>
      <point x="87.0" y="107.97014925373135"/>
      <point x="87" y="202" type="qcurve" smooth="yes"/>
      <point x="87.0" y="245.28358208955223"/>
      <point x="115.17910447761194" y="351.80597014925377"/>
      <point x="151" y="413" type="qcurve"/>
      <point x="231" y="377" type="line"/>
      <point x="207.11940298507463" y="324.76119402985074"/>
      <point x="191.0" y="255.1044776119403"/>
      <point x="191" y="226" type="qcurve" smooth="yes"/>
      <point x="191.0" y="152.86567164179104"/>
      <point x="298.1641791044776" y="102.0"/>
      <point x="381" y="102" type="qcurve" smooth="yes"/>
      <point x="751" y="102" type="line"/>
    </contour>
    <component base="fehDotless-ar.init" xOffset="640"/>
  </outline>
</glyph>
<glyph name="Germandbls" format="2">
  <advance width="1089"/>
  <unicode hex="1E9E"/>
  <outline>
    <contour>
      <point x="885" y="609" type="line"/>
      <point x="739" y="596"/>
      <point x="618" y="534"/>
      <point x="618" y="486" type="qcurve" smooth="yes"/>
      <point x="618" y="446"/>
      <point x="701" y="391"/>
      <point x="769" y="373" type="qcurve" smooth="yes"/>
      <point x="802" y="364"/>
      <point x="875" y="338"/>
      <point x="904" y="314" type="qcurve" smooth="yes"/>
      <point x="929" y="293"/>
      <point x="961" y="230"/>
      <point x="961" y="184" type="qcurve" smooth="yes"/>
      <point x="961" y="104"/>
      <point x="830" y="-10"/>
      <point x="721" y="-10" type="qcurve" smooth="yes"/>
      <point x="641" y="-10"/>
      <point x="516" y="39"/>
      <point x="459" y="83" type="qcurve"/>
      <point x="526" y="163" type="line"/>
      <point x="565" y="136"/>
      <point x="659" y="87"/>
      <point x="721" y="87" type="qcurve" smooth="yes"/>
      <point x="778" y="87"/>
      <point x="857" y="140"/>
      <point x="857" y="173" type="qcurve" smooth="yes"/>
      <point x="857" y="198"/>
      <point x="825" y="234"/>
      <point x="801" y="246" type="qcurve" smooth="yes"/>
      <point x="778" y="259"/>
      <point x="720" y="276"/>
      <point x="693" y="283" type="qcurve" smooth="yes"/>
      <point x="618" y="302"/>
      <point x="512" y="396"/>
      <point x="512" y="469" type="qcurve" smooth="yes"/>
      <point x="512" y="565"/>
      <point x="682" y="660"/>
      <point x="785" y="653" type="qcurve"/>
      <point x="785" y="613" type="line"/>
      <point x="761" y="620"/>
      <point x="665" y="637"/>
      <point x="605" y="637" type="qcurve" smooth="yes"/>
      <point x="484" y="637"/>
      <point x="293" y="464"/>
      <point x="292" y="263" type="qcurve" smooth="yes"/>
      <point x="290" y="1" type="line"/>
      <point x="182" y="1" type="line"/>
      <point x="183" y="257" type="line" smooth="yes"/>
      <point x="184" y="493"/>
      <point x="410" y="726"/>
      <point x="605" y="726" type="qcurve" smooth="yes"/>
      <point x="678" y="726"/>
      <point x="803" y="707"/>
      <point x="875" y="686" type="qcurve"/>
    </contour>
  </outline>
</glyph>
<glyph name="bullet" format="2">
  <advance width="623"/>
  <unicode hex="2022"/>
  <note>
bullet
</note>
  <outline>
    <contour>
      <point x="311" y="216" type="qcurve" smooth="yes"/>
      <point x="255.02985074626866" y="216.0"/>
      <point x="175.0" y="295.02985074626866"/>
      <point x="175" y="351" type="qcurve" smooth="yes"/>
      <point x="175.0" y="409.2089552238806"/>
      <point x="255.77611940298507" y="488.0"/>
      <point x="311" y="488" type="qcurve" smooth="yes"/>
      <point x="366.2238805970149" y="488.0"/>
      <point x="448.0" y="409.2089552238806"/>
      <point x="448" y="351" type="qcurve" smooth="yes"/>
      <point x="448.0" y="295.02985074626866"/>
      <point x="366.97014925373134" y="216.0"/>
    </contour>
  </outline>
</glyph>
<glyph name="guilsinglleft" format="2">
  <advance width="562"/>
  <unicode hex="2039"/>
  <note>
guilsinglleft
</note>
  <outline>
    <contour>
      <point x="232" y="245" type="line"/>
      <point x="233" y="276" type="line"/>
      <point x="412" y="105" type="line"/>
      <point x="339" y="50" type="line"/>
      <point x="110" y="258" type="line"/>
      <point x="110" y="258" type="line"/>
      <point x="338" y="471" type="line"/>
      <point x="411" y="416" type="line"/>
    </contour>
  </outline>
</glyph>
<glyph name="naira" format="2">
  <advance width="1215"/>
  <unicode hex="20A6"/>
  <anchor x="601" y="0" name="bottom"/>
  <anchor x="601" y="700" name="top"/>
  <outline>
    <contour>
      <point x="232" y="297" type="line"/>
      <point x="110" y="297" type="line"/>
      <point x="110" y="407" type="line"/>
      <point x="234" y="407" type="line"/>
      <point x="268" y="400" type="line"/>
      <point x="900" y="400" type="line"/>
      <point x="942" y="407" type="line"/>
      <point x="1075" y="407" type="line"/>
      <point x="1075" y="297" type="line"/>
      <point x="937" y="297" type="line"/>
      <point x="896" y="304" type="line"/>
      <point x="262" y="304" type="line"/>
    </contour>
    <contour>
      <point x="870" y="470" type="qcurve"/>
      <point x="870" y="700" type="line"/>
      <point x="978" y="700" type="line"/>
      <point x="978" y="0" type="line"/>
      <point x="869" y="0" type="line"/>
      <point x="298" y="562" type="line"/>
      <point x="319" y="576" type="line"/>
      <point x="325" y="512"/>
      <point x="329" y="336"/>
      <point x="329" y="291" type="qcurve"/>
      <point x="329" y="0" type="line"/>
      <point x="221" y="0" type="line"/>
      <point x="221" y="700" type="line"/>
      <point x="328" y="700" type="line"/>
      <point x="896" y="127" type="line"/>
      <point x="880" y="118" type="line"/>
      <point x="870" y="180"/>
      <point x="870" y="360"/>
    </contour>
  </outline>
</glyph>
<glyph name="won" format="2">
  <advance width="1277"/>
  <unicode hex="20A9"/>
  <anchor x="640" y="0" name="bottom"/>
  <anchor x="640" y="640" name="top"/>
  <outline>
    <contour>
      <point x="244" y="322" type="line"/>
      <point x="111" y="322" type="line"/>
      <point x="111" y="431" type="line"/>
      <point x="230" y="431" type="line"/>
      <point x="263" y="417" type="line"/>
      <point x="1046" y="417" type="line"/>
      <point x="1082" y="431" type="line"/>
      <point x="1185" y="431" type="line"/>
      <point x="1185" y="322" type="line"/>
      <point x="1059" y="322" type="line"/>
      <point x="1010" y="336" type="line"/>
      <point x="292" y="336" type="line"/>
    </contour>
    <contour>
      <point x="350" y="0" type="line"/>
      <point x="92" y="700" type="line"/>
      <point x="211" y="700" type="line"/>
      <point x="359" y="289" type="line" smooth="yes"/>
      <point x="375" y="244"/>
      <point x="407" y="139"/>
      <point x="419" y="99" type="qcurve"/>
      <point x="375" y="100" type="line"/>
      <point x="389" y="140"/>
      <point x="431" y="244"/>
      <point x="451" y="289" type="qcurve" smooth="yes"/>
      <point x="580" y="579" type="line"/>
      <point x="684" y="579" type="line"/>
      <point x="809" y="291" type="line" smooth="yes"/>
      <point x="828" y="248"/>
      <point x="870" y="147"/>
      <point x="880" y="109" type="qcurve"/>
      <point x="840" y="102" type="line"/>
      <point x="852" y="143"/>
      <point x="885" y="251"/>
      <point x="904" y="296" type="qcurve" smooth="yes"/>
      <point x="1068" y="700" type="line"/>
      <point x="1184" y="700" type="line"/>
      <point x="896" y="0" type="line"/>
      <point x="821" y="0" type="line"/>
      <point x="618" y="471" type="line"/>
      <point x="637" y="467" type="line"/>
      <point x="433" y="0" type="line"/>
    </contour>
  </outline>
</glyph>
<glyph name="rupeeIndian" format="2">
  <advance width="808"/>
  <unicode hex="20B9"/>
  <outline>
    <contour>
      <point x="436" y="580" type="line"/>
      <point x="409" y="640" type="line"/>
      <point x="483" y="640"/>
      <point x="610" y="541"/>
      <point x="610" y="457" type="qcurve"/>
      <point x="610" y="377"/>
      <point x="441" y="247"/>
      <point x="319" y="247" type="qcurve"/>
      <point x="256" y="247" type="line"/>
      <point x="185" y="316" type="line"/>
      <point x="185" y="367" type="line"/>
      <point x="329" y="367" type="line"/>
      <point x="401" y="367"/>
      <point x="480" y="435"/>
      <point x="480" y="478" type="qcurve"/>
      <point x="480" y="528"/>
      <point x="373" y="580"/>
      <point x="301" y="580" type="qcurve" smooth="yes"/>
      <point x="100" y="580" type="line"/>
      <point x="100" y="700" type="line"/>
      <point x="678" y="700" type="line"/>
      <point x="678" y="580" type="line"/>
    </contour>
    <contour>
      <point x="185" y="316" type="line"/>
      <point x="312" y="341" type="line"/>
      <point x="650" y="-1" type="line"/>
      <point x="493" y="0" type="line"/>
    </contour>
    <contour>
      <point x="683" y="421" type="line"/>
      <point x="275" y="421" type="line"/>
      <point x="275" y="507" type="line"/>
      <point x="683" y="507" type="line"/>
    </contour>
  </outline>
</glyph>
<glyph name="liraTurkish" format="2">
  <advance width="952"/>
  <unicode hex="20BA"/>
  <outline>
    <contour>
      <point x="339" y="-10" type="qcurve"/>
      <point x="311.3880597014925" y="-10.0"/>
      <point x="270.6865671641791" y="-5.970149253731343"/>
      <point x="258" y="0" type="qcurve"/>
      <point x="258" y="700" type="line"/>
      <point x="376" y="700" type="line"/>
      <point x="376" y="52" type="line"/>
      <point x="346" y="103" type="line"/>
      <point x="443.0149253731343" y="103.0"/>
      <point x="667.4626865671642" y="196.7910447761194"/>
      <point x="710" y="305" type="qcurve"/>
      <point x="802" y="263" type="line"/>
      <point x="789.3134328358209" y="158.52238805970148"/>
      <point x="503.9253731343283" y="-10.0"/>
    </contour>
    <contour>
      <point x="169" y="336" type="line"/>
      <point x="120" y="420" type="line"/>
      <point x="537" y="654" type="line"/>
      <point x="591" y="571" type="line"/>
    </contour>
    <contour>
      <point x="194" y="160" type="line"/>
      <point x="150" y="244" type="line"/>
      <point x="567" y="478" type="line"/>
      <point x="616" y="395" type="line"/>
    </contour>
  </outline>
</glyph>
<glyph name="manat" format="2">
  <advance width="1068"/>
  <unicode hex="20BC"/>
  <anchor x="534" y="694" name="bottom"/>
  <anchor x="116" y="684" name="ogonek"/>
  <anchor x="534" y="-6" name="top"/>
  <anchor x="107" y="-6" name="topright"/>
  <outline>
    <contour>
      <point x="581" y="801" type="line"/>
      <point x="581" y="254" type="line"/>
      <point x="464" y="254" type="line"/>
      <point x="464" y="801" type="line"/>
    </contour>
    <contour>
      <point x="285" y="-7" type="line"/>
      <point x="182" y="-7" type="line"/>
      <point x="182" y="359" type="line"/>
      <point x="182" y="506"/>
      <point x="375" y="700"/>
      <point x="534" y="700" type="qcurve"/>
      <point x="693" y="700"/>
      <point x="886" y="506"/>
      <point x="886" y="359" type="qcurve"/>
      <point x="886" y="-7" type="line"/>
      <point x="778" y="-7" type="line"/>
      <point x="778" y="355" type="line"/>
      <point x="778" y="459"/>
      <point x="636" y="595"/>
      <point x="534" y="595" type="qcurve"/>
      <point x="427" y="595"/>
      <point x="285" y="459"/>
      <point x="285" y="355" type="qcurve"/>
    </contour>
  </outline>
</glyph>
<glyph name="numero" format="2">
  <advance width="1699"/>
  <unicode hex="2116"/>
  <anchor x="561" y="0" name="bottom"/>
  <anchor x="561" y="700" name="top"/>
  <outline>
    <contour>
      <point x="1499" y="173" type="line"/>
      <point x="1133" y="173" type="line"/>
      <point x="1133" y="272" type="line"/>
      <point x="1499" y="272" type="line"/>
    </contour>
    <contour>
      <point x="1307" y="708" type="qcurve"/>
      <point x="1385" y="708"/>
      <point x="1491" y="600"/>
      <point x="1491" y="521" type="qcurve"/>
      <point x="1491" y="437"/>
      <point x="1385" y="338"/>
      <point x="1307" y="338" type="qcurve"/>
      <point x="1229" y="338"/>
      <point x="1125" y="437"/>
      <point x="1125" y="521" type="qcurve"/>
      <point x="1125" y="600"/>
      <point x="1229" y="708"/>
    </contour>
    <contour>
      <point x="1306" y="431" type="qcurve"/>
      <point x="1340" y="431"/>
      <point x="1379" y="483"/>
      <point x="1379" y="521" type="qcurve"/>
      <point x="1379" y="561"/>
      <point x="1340" y="615"/>
      <point x="1306" y="615" type="qcurve"/>
      <point x="1274" y="615"/>
      <point x="1235" y="561"/>
      <point x="1235" y="521" type="qcurve"/>
      <point x="1235" y="483"/>
      <point x="1274" y="431"/>
    </contour>
    <contour>
      <point x="831" y="470" type="qcurve"/>
      <point x="831" y="700" type="line"/>
      <point x="939" y="700" type="line"/>
      <point x="939" y="0" type="line"/>
      <point x="830" y="0" type="line"/>
      <point x="259" y="562" type="line"/>
      <point x="280" y="576" type="line"/>
      <point x="286" y="512"/>
      <point x="290" y="336"/>
      <point x="290" y="291" type="qcurve"/>
      <point x="290" y="0" type="line"/>
      <point x="182" y="0" type="line"/>
      <point x="182" y="700" type="line"/>
      <point x="289" y="700" type="line"/>
      <point x="857" y="127" type="line"/>
      <point x="841" y="118" type="line"/>
      <point x="831" y="180"/>
      <point x="831" y="360"/>
    </contour>
  </outline>
</glyph>
<glyph name="trademark" format="2">
  <advance width="928"/>
  <unicode hex="2122"/>
  <note>
trademark
</note>
  <outline>
    <contour>
      <point x="385" y="626" type="line"/>
      <point x="110" y="626" type="line"/>
      <point x="110" y="700" type="line"/>
      <point x="385" y="700" type="line"/>
    </contour>
    <contour>
      <point x="283" y="340" type="line"/>
      <point x="207" y="340" type="line"/>
      <point x="207" y="676" type="line"/>
      <point x="283" y="676" type="line"/>
    </contour>
    <contour>
      <point x="596" y="452" type="line"/>
      <point x="743" y="700" type="line"/>
      <point x="818" y="700" type="line"/>
      <point x="818" y="340" type="line"/>
      <point x="735" y="340" type="line"/>
      <point x="735" y="635" type="line"/>
      <point x="780" y="635" type="line"/>
      <point x="656" y="418" type="line"/>
      <point x="590" y="418" type="line"/>
      <point x="460" y="643" type="line"/>
      <point x="517" y="643" type="line"/>
      <point x="517" y="340" type="line"/>
      <point x="436" y="340" type="line"/>
      <point x="436" y="700" type="line"/>
      <point x="505" y="700" type="line"/>
      <point x="652" y="452" type="line"/>
    </contour>
  </outline>
</glyph>
<glyph name="estimated" format="2">
  <advance width="847"/>
  <unicode hex="212E"/>
  <note>
estimated
</note>
  <outline>
    <contour>
      <point x="667" y="115" type="qcurve" smooth="yes"/>
      <point x="621" y="49"/>
      <point x="515.1044776119403" y="-11.0"/>
      <point x="436" y="-11" type="qcurve" smooth="yes"/>
      <point x="310.6268656716418" y="-11.0"/>
      <point x="160.0" y="161.86567164179104"/>
      <point x="160" y="285" type="qcurve" smooth="yes"/>
      <point x="160.0" y="408.88059701492534"/>
      <point x="310.6268656716418" y="581.0"/>
      <point x="436" y="581" type="qcurve" smooth="yes"/>
      <point x="553.1641791044776" y="581.0"/>
      <point x="704.5373134328358" y="429.14925373134326"/>
      <point x="712" y="309" type="qcurve" smooth="yes"/>
      <point x="712.7462686567164" y="300.04477611940297"/>
      <point x="701.1940298507462" y="285.0"/>
      <point x="690" y="285" type="qcurve" smooth="yes"/>
      <point x="270" y="285" type="line"/>
      <point x="275" y="292" type="line"/>
      <point x="275" y="98" type="line" smooth="yes"/>
      <point x="275.0" y="95.76119402985074"/>
      <point x="276.25373134328356" y="93.49253731343283"/>
      <point x="277" y="92" type="qcurve" smooth="yes"/>
      <point x="308.34328358208955" y="60.65671641791045"/>
      <point x="390.4776119402985" y="28.0"/>
      <point x="436" y="28" type="qcurve" smooth="yes"/>
      <point x="498.6865671641791" y="28.0"/>
      <point x="596.6865671641791" y="80.044776119403"/>
      <point x="634" y="139" type="qcurve"/>
      <point x="636.9850746268656" y="144.22388059701493"/>
      <point x="645.776119402985" y="150.0"/>
      <point x="651" y="150" type="qcurve" smooth="yes"/>
      <point x="659.2089552238806" y="150.0"/>
      <point x="673.0" y="139.70149253731344"/>
      <point x="673" y="130" type="qcurve" smooth="yes"/>
      <point x="673.0" y="126.26865671641791"/>
      <point x="669" y="118"/>
    </contour>
    <contour>
      <point x="266" y="324" type="line"/>
      <point x="608" y="324" type="line"/>
      <point x="599" y="320" type="line"/>
      <point x="599" y="473" type="line" smooth="yes"/>
      <point x="599.0" y="474.4925373134328"/>
      <point x="597.4925373134329" y="477.25373134328356"/>
      <point x="596" y="478" type="qcurve"/>
      <point x="563.1641791044776" y="510.8358208955224"/>
      <point x="479.77611940298505" y="543.0"/>
      <point x="435" y="543" type="qcurve" smooth="yes"/>
      <point x="390.22388059701495" y="543.0"/>
      <point x="307.5970149253731" y="511.08955223880594"/>
      <point x="277" y="479" type="qcurve" smooth="yes"/>
      <point x="276.25373134328356" y="477.5074626865672"/>
      <point x="275.0" y="475.23880597014926"/>
      <point x="275" y="473" type="qcurve" smooth="yes"/>
      <point x="275" y="314" type="line"/>
    </contour>
  </outline>
</glyph>
<glyph name="noonghunna-ar.fina" format="2">
  <advance width="1093"/>
  <unicode hex="FB9F"/>
  <anchor x="884" y="0" name="#entry"/>
  <anchor x="459" y="-230" name="bottom"/>
  <anchor x="458" y="253" name="top"/>
  <outline>
    <contour>
      <point x="711" y="246" type="line"/>
      <point x="791" y="342" type="line"/>
      <point x="861" y="185" type="line" smooth="yes"/>
      <point x="881.1492537313433" y="139.47761194029852"/>
      <point x="935.7462686567164" y="102.0"/>
      <point x="985" y="102" type="qcurve" smooth="yes"/>
      <point x="1093" y="102" type="line"/>
      <point x="1093" y="0" type="line"/>
      <point x="985" y="0" type="line" smooth="yes"/>
      <point x="909.6268656716418" y="0.0"/>
      <point x="791.1343283582089" y="76.49253731343285"/>
      <point x="768" y="125" type="qcurve" smooth="yes"/>
    </contour>
    <contour>
      <point x="188" y="38" type="qcurve" smooth="yes"/>
      <point x="188.0" y="-42.59701492537313"/>
      <point x="338.4179104477612" y="-128.0"/>
      <point x="472" y="-128" type="qcurve" smooth="yes"/>
      <point x="613.044776119403" y="-128.0"/>
      <point x="787.0" y="-46.402985074626855"/>
      <point x="787" y="23" type="qcurve" smooth="yes"/>
      <point x="787.0" y="56.582089552238806"/>
      <point x="771.4029850746268" y="114.22388059701493"/>
      <point x="752" y="159" type="qcurve"/>
      <point x="882" y="50" type="line"/>
      <point x="882.0" y="-77.61194029850745"/>
      <point x="661.9850746268656" y="-230.0"/>
      <point x="459" y="-230" type="qcurve" smooth="yes"/>
      <point x="270.1940298507463" y="-230.0"/>
      <point x="87.0" y="-80.73134328358208"/>
      <point x="87" y="23" type="qcurve" smooth="yes"/>
      <point x="87.0" y="56.582089552238806"/>
      <point x="113.16417910447761" y="176.11940298507463"/>
      <point x="146" y="250" type="qcurve"/>
      <point x="90" y="228" type="line"/>
      <point x="267" y="169" type="line"/>
      <point x="234" y="223" type="line"/>
      <point x="210.86567164179104" y="168.52238805970148"/>
      <point x="188.0" y="72.32835820895522"/>
    </contour>
  </outline>
</glyph>
<glyph name="hah-ar.medi" format="2">
  <advance width="1185"/>
  <unicode hex="FEA4"/>
  <anchor x="442" y="0" name="bottom"/>
  <anchor x="372" y="438" name="top"/>
  <outline>
    <contour>
      <point x="777" y="133" type="qcurve"/>
      <point x="847" y="167" type="line"/>
      <point x="862.6716417910447" y="131.92537313432837"/>
      <point x="951.6567164179105" y="102.0"/>
      <point x="1083" y="102" type="qcurve" smooth="yes"/>
      <point x="1185" y="102" type="line"/>
      <point x="1185" y="0" type="line"/>
      <point x="1080" y="0" type="line" smooth="yes"/>
      <point x="920.2985074626865" y="0.0"/>
      <point x="797.1492537313433" y="64.34328358208955"/>
    </contour>
    <component base="hah-ar.init"/>
  </outline>
</glyph>
<glyph name="seen-ar.fina" format="2">
  <advance width="1966"/>
  <unicode hex="FEB2"/>
  <anchor x="1159" y="0" name="bottom"/>
  <anchor x="1175" y="333" name="top"/>
  <outline>
    <contour>
      <point x="866" y="102" type="line"/>
      <point x="1083" y="102" type="line"/>
      <point x="1100.1641791044776" y="130.3582089552239"/>
      <point x="1121.2686567164178" y="242.73134328358208"/>
      <point x="1125" y="289" type="qcurve"/>
      <point x="1246" y="331" type="line"/>
      <point x="1224.358208955224" y="227.26865671641792"/>
      <point x="1169.4925373134329" y="76.11940298507461"/>
      <point x="1118" y="0" type="qcurve"/>
      <point x="866" y="0" type="line"/>
    </contour>
    <contour>
      <point x="1179" y="136" type="qcurve"/>
      <point x="1124" y="68" type="line"/>
      <point x="1162.0597014925372" y="42.626865671641795"/>
      <point x="1269.402985074627" y="0.0"/>
      <point x="1350" y="0" type="qcurve" smooth="yes"/>
      <point x="1651" y="0" type="line"/>
      <point x="1677.1194029850747" y="101.49253731343282"/>
      <point x="1664.4328358208954" y="297.22388059701495"/>
      <point x="1651" y="392" type="qcurve"/>
      <point x="1536" y="315" type="line"/>
      <point x="1557.641791044776" y="253.05970149253733"/>
      <point x="1579.5373134328358" y="169.16417910447763"/>
      <point x="1587" y="102" type="qcurve"/>
      <point x="1327" y="102" type="line" smooth="yes"/>
      <point x="1282.9701492537313" y="102.0"/>
      <point x="1208.1044776119402" y="119.58208955223881"/>
    </contour>
    <contour>
      <point x="1632" y="136" type="qcurve"/>
      <point x="1577" y="68" type="line"/>
      <point x="1615.0597014925372" y="42.626865671641795"/>
      <point x="1776.7313432835822" y="0.0"/>
      <point x="1873" y="0" type="qcurve" smooth="yes"/>
      <point x="1966" y="0" type="line"/>
      <point x="1966" y="102" type="line"/>
      <point x="1850" y="102" type="line" smooth="yes"/>
      <point x="1790.2985074626865" y="102.0"/>
      <point x="1661.1044776119402" y="119.58208955223881"/>
    </contour>
    <component base="noonghunna-ar"/>
  </outline>
</glyph>
<glyph name="seen-ar.init" format="2">
  <advance width="1374"/>
  <unicode hex="FEB3"/>
  <anchor x="666" y="0" name="bottom"/>
  <anchor x="700" y="333" name="top"/>
  <outline>
    <contour>
      <point x="678" y="136" type="qcurve"/>
      <point x="623" y="68" type="line"/>
      <point x="661.0597014925373" y="42.626865671641795"/>
      <point x="768.4029850746268" y="0.0"/>
      <point x="849" y="0" type="qcurve" smooth="yes"/>
      <point x="1143" y="0" type="line"/>
      <point x="1190.0149253731342" y="131.34328358208955"/>
      <point x="1138.2835820895523" y="343.22388059701495"/>
      <point x="1095" y="438" type="qcurve"/>
      <point x="1004" y="346" type="line"/>
      <point x="1037.5820895522388" y="284.05970149253733"/>
      <point x="1079.0" y="169.16417910447763"/>
      <point x="1079" y="102" type="qcurve"/>
      <point x="826" y="102" type="line" smooth="yes"/>
      <point x="781.9701492537314" y="102.0"/>
      <point x="707.1044776119403" y="119.58208955223881"/>
    </contour>
    <contour>
      <point x="402" y="102" type="qcurve" smooth="yes"/>
      <point x="584" y="102" type="line"/>
      <point x="601.1641791044776" y="130.3582089552239"/>
      <point x="632.2686567164179" y="242.73134328358208"/>
      <point x="636" y="289" type="qcurve"/>
      <point x="757" y="331" type="line"/>
      <point x="735.3582089552239" y="227.26865671641792"/>
      <point x="670.4925373134329" y="76.11940298507461"/>
      <point x="619" y="0" type="qcurve"/>
      <point x="425" y="0" type="line" smooth="yes"/>
      <point x="344.4029850746269" y="0.0"/>
      <point x="237.0597014925373" y="42.626865671641795"/>
      <point x="199" y="68" type="qcurve"/>
      <point x="254" y="136" type="line"/>
      <point x="283.1044776119403" y="119.58208955223881"/>
      <point x="357.97014925373134" y="102.0"/>
    </contour>
    <contour>
      <point x="0" y="102" type="line"/>
      <point x="222" y="102" type="line"/>
      <point x="239.16417910447763" y="130.3582089552239"/>
      <point x="270.2686567164179" y="242.73134328358208"/>
      <point x="274" y="289" type="qcurve"/>
      <point x="395" y="331" type="line"/>
      <point x="373.35820895522386" y="227.26865671641792"/>
      <point x="308.4925373134328" y="76.11940298507461"/>
      <point x="257" y="0" type="qcurve"/>
      <point x="0" y="0" type="line"/>
    </contour>
  </outline>
</glyph>
<glyph name="seen-ar.medi" format="2">
  <advance width="1451"/>
  <unicode hex="FEB4"/>
  <outline>
    <contour>
      <point x="669" y="136" type="qcurve"/>
      <point x="614" y="68" type="line"/>
      <point x="652.0597014925373" y="42.626865671641795"/>
      <point x="759.4029850746268" y="0.0"/>
      <point x="840" y="0" type="qcurve" smooth="yes"/>
      <point x="1137" y="0" type="line"/>
      <point x="1163.1194029850747" y="101.49253731343282"/>
      <point x="1150.4328358208954" y="297.22388059701495"/>
      <point x="1137" y="392" type="qcurve"/>
      <point x="1022" y="315" type="line"/>
      <point x="1043.641791044776" y="253.05970149253733"/>
      <point x="1065.5373134328358" y="169.16417910447763"/>
      <point x="1073" y="102" type="qcurve"/>
      <point x="817" y="102" type="line" smooth="yes"/>
      <point x="772.9701492537314" y="102.0"/>
      <point x="698.1044776119403" y="119.58208955223881"/>
    </contour>
    <contour>
      <point x="397" y="102" type="qcurve" smooth="yes"/>
      <point x="575" y="102" type="line"/>
      <point x="592.1641791044776" y="130.3582089552239"/>
      <point x="613.2686567164179" y="242.73134328358208"/>
      <point x="617" y="289" type="qcurve"/>
      <point x="738" y="331" type="line"/>
      <point x="716.3582089552239" y="227.26865671641792"/>
      <point x="661.4925373134329" y="76.11940298507461"/>
      <point x="610" y="0" type="qcurve"/>
      <point x="420" y="0" type="line" smooth="yes"/>
      <point x="339.4029850746269" y="0.0"/>
      <point x="232.0597014925373" y="42.626865671641795"/>
      <point x="194" y="68" type="qcurve"/>
      <point x="249" y="136" type="line"/>
      <point x="278.1044776119403" y="119.58208955223881"/>
      <point x="352.97014925373134" y="102.0"/>
    </contour>
    <contour>
      <point x="0" y="102" type="line"/>
      <point x="217" y="102" type="line"/>
      <point x="234.16417910447763" y="130.3582089552239"/>
      <point x="255.26865671641792" y="242.73134328358208"/>
      <point x="259" y="289" type="qcurve"/>
      <point x="380" y="331" type="line"/>
      <point x="358.35820895522386" y="227.26865671641792"/>
      <point x="303.4925373134328" y="76.11940298507461"/>
      <point x="252" y="0" type="qcurve"/>
      <point x="0" y="0" type="line"/>
    </contour>
    <contour>
      <point x="1117" y="136" type="qcurve"/>
      <point x="1062" y="68" type="line"/>
      <point x="1100.0597014925372" y="42.626865671641795"/>
      <point x="1261.7313432835822" y="0.0"/>
      <point x="1358" y="0" type="qcurve" smooth="yes"/>
      <point x="1451" y="0" type="line"/>
      <point x="1451" y="102" type="line"/>
      <point x="1335" y="102" type="line" smooth="yes"/>
      <point x="1275.2985074626865" y="102.0"/>
      <point x="1146.1044776119402" y="119.58208955223881"/>
    </contour>
  </outline>
</glyph>
<glyph name="ain-ar.init" format="2">
  <advance width="863"/>
  <unicode hex="FECB"/>
  <anchor x="379" y="0" name="bottom"/>
  <anchor x="505" y="438" name="top"/>
  <outline>
    <contour>
      <point x="0" y="0" type="line"/>
      <point x="0" y="102" type="line"/>
      <point x="721" y="102" type="line"/>
      <point x="721" y="0" type="line"/>
      <point x="494.8805970149254" y="0.0"/>
      <point x="240.0" y="121.82089552238807"/>
      <point x="240" y="236" type="qcurve" smooth="yes"/>
      <point x="240.0" y="324.05970149253733"/>
      <point x="376.64179104477614" y="438.0"/>
      <point x="505" y="438" type="qcurve" smooth="yes"/>
      <point x="576.6417910447761" y="438.0"/>
      <point x="698.4477611940299" y="409.13432835820896"/>
      <point x="738" y="386" type="qcurve"/>
      <point x="727" y="430" type="line"/>
      <point x="650" y="267" type="line"/>
      <point x="692" y="301" type="line"/>
      <point x="655.4328358208955" y="318.910447761194"/>
      <point x="557.2388059701492" y="336.0"/>
      <point x="505" y="336" type="qcurve" smooth="yes"/>
      <point x="419.17910447761193" y="336.0"/>
      <point x="344.0" y="280.77611940298505"/>
      <point x="344" y="236" type="qcurve" smooth="yes"/>
      <point x="344.0" y="184.50746268656718"/>
      <point x="447.44776119402985" y="102.0"/>
      <point x="587" y="102" type="qcurve" smooth="yes"/>
      <point x="721" y="102" type="line"/>
      <point x="721" y="0" type="line"/>
    </contour>
  </outline>
</glyph>
<glyph name="kaf-ar.init" format="2">
  <advance width="819"/>
  <unicode hex="FEDB"/>
  <anchor x="648" y="0" name="#entry"/>
  <anchor x="410" y="0" name="bottom"/>
  <anchor x="194" y="498" name="top"/>
  <outline>
    <contour>
      <point x="194" y="498" type="line"/>
      <point x="610" y="746" type="line"/>
      <point x="665" y="661" type="line"/>
      <point x="252" y="413" type="line"/>
      <point x="264" y="464" type="line"/>
      <point x="490.86567164179104" y="419.97014925373134"/>
      <point x="670.3880597014926" y="188.8059701492537"/>
      <point x="648" y="0" type="qcurve"/>
      <point x="0" y="0" type="line"/>
      <point x="0" y="102" type="line"/>
      <point x="560" y="102" type="line"/>
      <point x="551.7910447761194" y="199.0149253731343"/>
      <point x="379.07462686567163" y="342.44776119402985"/>
      <point x="194" y="382" type="qcurve"/>
    </contour>
  </outline>
</glyph>
<glyph name="meem-ar.fina" format="2">
  <advance width="1062"/>
  <unicode hex="FEE2"/>
  <anchor x="566" y="-16" name="bottom"/>
  <anchor x="534" y="407" name="top"/>
  <outline>
    <contour>
      <point x="523" y="301" type="qcurve" smooth="yes"/>
      <point x="484.94029850746267" y="301.0"/>
      <point x="360.04477611940297" y="257.8358208955224"/>
      <point x="319" y="225" type="qcurve" smooth="yes"/>
      <point x="268.25373134328356" y="184.70149253731344"/>
      <point x="231.0" y="122.31343283582089"/>
      <point x="231" y="85" type="qcurve" smooth="yes"/>
      <point x="231.0" y="-33.65671641791043"/>
      <point x="276.34328358208955" y="-343.7313432835821"/>
      <point x="245" y="-490" type="qcurve"/>
      <point x="276" y="-456" type="line"/>
      <point x="150" y="-446" type="line"/>
      <point x="182" y="-466" type="line"/>
      <point x="186.47761194029852" y="-292.8656716417911"/>
      <point x="134.0" y="11.119402985074629"/>
      <point x="134" y="85" type="qcurve" smooth="yes"/>
      <point x="134.0" y="126.04477611940298"/>
      <point x="172.089552238806" y="224.28358208955223"/>
      <point x="240" y="281" type="qcurve" smooth="yes"/>
      <point x="299.7014925373134" y="331.0"/>
      <point x="465.34328358208955" y="407.0"/>
      <point x="534" y="407" type="qcurve" smooth="yes"/>
      <point x="589.223880597015" y="407.0"/>
      <point x="680.776119402985" y="318.94029850746267"/>
      <point x="736" y="207" type="qcurve" smooth="yes"/>
      <point x="767.3432835820895" y="143.56716417910448"/>
      <point x="834.6567164179105" y="102.0"/>
      <point x="916" y="102" type="qcurve" smooth="yes"/>
      <point x="1062" y="102" type="line"/>
      <point x="1062" y="0" type="line"/>
      <point x="916" y="0" type="line" smooth="yes"/>
      <point x="791.3731343283582" y="0.0"/>
      <point x="707.2089552238806" y="69.7910447761194"/>
      <point x="649" y="178" type="qcurve" smooth="yes"/>
      <point x="606.4626865671642" y="257.1044776119403"/>
      <point x="543.8955223880597" y="301.0"/>
    </contour>
    <contour>
      <point x="231" y="160" type="line"/>
      <point x="233.23880597014926" y="118.95522388059702"/>
      <point x="250.82089552238807" y="85.44776119402985"/>
      <point x="265" y="75" type="qcurve" smooth="yes"/>
      <point x="341.86567164179104" y="16.791044776119406"/>
      <point x="488.5074626865672" y="-16.0"/>
      <point x="540" y="-16" type="qcurve" smooth="yes"/>
      <point x="619.1044776119403" y="-16.0"/>
      <point x="715.3731343283582" y="20.880597014925375"/>
      <point x="740" y="47" type="qcurve"/>
      <point x="700" y="109" type="line"/>
      <point x="570.8955223880597" y="69.44776119402985"/>
      <point x="350.8059701492537" y="120.38805970149255"/>
      <point x="262" y="198" type="qcurve"/>
    </contour>
  </outline>
</glyph>
<glyph name="meem-ar.medi" format="2">
  <advance width="1209"/>
  <unicode hex="FEE4"/>
  <anchor x="615" y="0" name="bottom"/>
  <anchor x="651" y="405" name="top"/>
  <outline>
    <contour>
      <point x="137" y="0" type="qcurve" smooth="yes"/>
      <point x="0" y="0" type="line"/>
      <point x="0" y="102" type="line"/>
      <point x="119" y="102" type="line" smooth="yes"/>
      <point x="203.32835820895522" y="102.0"/>
      <point x="303.04477611940297" y="155.5820895522388"/>
      <point x="362" y="222" type="qcurve" smooth="yes"/>
      <point x="447.82089552238807" y="318.2686567164179"/>
      <point x="564.1343283582089" y="405.0"/>
      <point x="641" y="405" type="qcurve" smooth="yes"/>
      <point x="708.1641791044776" y="405.0"/>
      <point x="831.8059701492538" y="305.5074626865671"/>
      <point x="893" y="207" type="qcurve" smooth="yes"/>
      <point x="938.5223880597015" y="133.86567164179104"/>
      <point x="1017.6119402985074" y="102.0"/>
      <point x="1090" y="102" type="qcurve" smooth="yes"/>
      <point x="1209" y="102" type="line"/>
      <point x="1209" y="0" type="line"/>
      <point x="1063" y="0" type="line" smooth="yes"/>
      <point x="951.8059701492538" y="0.0"/>
      <point x="846.0149253731344" y="100.58208955223881"/>
      <point x="799" y="167" type="qcurve" smooth="yes"/>
      <point x="745.2686567164179" y="243.1194029850746"/>
      <point x="666.5820895522388" y="301.0"/>
      <point x="633" y="301" type="qcurve" smooth="yes"/>
      <point x="586.7313432835821" y="301.0"/>
      <point x="514.1791044776119" y="249.65671641791045"/>
      <point x="450" y="181" type="qcurve" smooth="yes"/>
      <point x="364.92537313432837" y="89.95522388059702"/>
      <point x="257.8955223880597" y="0.0"/>
    </contour>
    <contour>
      <point x="375" y="108" type="line"/>
      <point x="470.5223880597015" y="36.35820895522389"/>
      <point x="667.8656716417911" y="-16.0"/>
      <point x="741" y="-16" type="qcurve" smooth="yes"/>
      <point x="791.7462686567164" y="-16.0"/>
      <point x="883.6119402985074" y="13.701492537313435"/>
      <point x="906" y="54" type="qcurve"/>
      <point x="860" y="123" type="line"/>
      <point x="768.955223880597" y="71.50746268656717"/>
      <point x="508.3731343283582" y="130.49253731343285"/>
      <point x="433" y="179" type="qcurve"/>
    </contour>
  </outline>
</glyph>
<glyph name="heh-ar.fina" format="2">
  <advance width="949"/>
  <unicode hex="FEEA"/>
  <outline>
    <contour>
      <point x="522" y="164" type="line"/>
      <point x="484.6865671641791" y="152.80597014925374"/>
      <point x="388.5223880597015" y="145.0"/>
      <point x="343" y="145" type="qcurve" smooth="yes"/>
      <point x="276.5820895522388" y="145.0"/>
      <point x="191.0" y="173.13432835820896"/>
      <point x="191" y="200" type="qcurve" smooth="yes"/>
      <point x="191.0" y="229.1044776119403"/>
      <point x="356.1641791044776" y="319.4179104477612"/>
      <point x="539" y="353" type="qcurve"/>
      <point x="520" y="461" type="line"/>
      <point x="321.4925373134329" y="413.23880597014926"/>
      <point x="87.0" y="282.3134328358209"/>
      <point x="87" y="195" type="qcurve" smooth="yes"/>
      <point x="87.0" y="118.13432835820896"/>
      <point x="242.2537313432836" y="45.0"/>
      <point x="343" y="45" type="qcurve" smooth="yes"/>
      <point x="406.43283582089555" y="45.0"/>
      <point x="507.6865671641791" y="56.32835820895522"/>
      <point x="545" y="72" type="qcurve"/>
    </contour>
    <contour>
      <point x="480" y="525" type="line"/>
      <point x="584" y="525" type="line"/>
      <point x="584" y="203" type="line" smooth="yes"/>
      <point x="584.0" y="147.02985074626866"/>
      <point x="628.5671641791045" y="102.0"/>
      <point x="692" y="102" type="qcurve" smooth="yes"/>
      <point x="949" y="102" type="line"/>
      <point x="949" y="0" type="line"/>
      <point x="672" y="0" type="line" smooth="yes"/>
      <point x="561.5522388059702" y="0.0"/>
      <point x="480.0" y="100.88059701492539"/>
      <point x="480" y="177" type="qcurve" smooth="yes"/>
    </contour>
  </outline>
</glyph>
<glyph name="heh-ar.init" format="2">
  <advance width="987"/>
  <unicode hex="FEEB"/>
  <outline>
    <contour>
      <point x="225" y="509" type="line"/>
      <point x="562.3134328358209" y="509.0"/>
      <point x="879.2537313432836" y="264.9253731343283"/>
      <point x="830" y="0" type="qcurve"/>
      <point x="623" y="0" type="line" smooth="yes"/>
      <point x="570.7611940298508" y="0.0"/>
      <point x="469.94029850746267" y="10.805970149253731"/>
      <point x="408" y="22" type="qcurve"/>
      <point x="343.07462686567163" y="10.805970149253731"/>
      <point x="231.98507462686567" y="0.0"/>
      <point x="179" y="0" type="qcurve" smooth="yes"/>
      <point x="0" y="0" type="line"/>
      <point x="0" y="102" type="line"/>
      <point x="257" y="102" type="line"/>
      <point x="246.55223880597015" y="117.67164179104478"/>
      <point x="235.0" y="158.38805970149255"/>
      <point x="235" y="186" type="qcurve" smooth="yes"/>
      <point x="235.0" y="238.23880597014926"/>
      <point x="321.43283582089555" y="337.0"/>
      <point x="408" y="337" type="qcurve" smooth="yes"/>
      <point x="494.56716417910445" y="337.0"/>
      <point x="581.0" y="238.23880597014926"/>
      <point x="581" y="186" type="qcurve" smooth="yes"/>
      <point x="581.0" y="159.88059701492537"/>
      <point x="571.955223880597" y="117.67164179104478"/>
      <point x="563" y="102" type="qcurve"/>
      <point x="758" y="102" type="line"/>
      <point x="751.2835820895523" y="254.23880597014923"/>
      <point x="501.56716417910445" y="406.97014925373134"/>
      <point x="215" y="401" type="qcurve"/>
    </contour>
    <contour>
      <point x="408" y="253" type="qcurve" smooth="yes"/>
      <point x="360.9850746268657" y="253.0"/>
      <point x="324.0" y="202.1044776119403"/>
      <point x="324" y="173" type="qcurve" smooth="yes"/>
      <point x="324.0" y="139.4179104477612"/>
      <point x="361.22388059701495" y="99.97014925373134"/>
      <point x="406" y="94" type="qcurve"/>
      <point x="452.2686567164179" y="98.4776119402985"/>
      <point x="492.0" y="139.4179104477612"/>
      <point x="492" y="173" type="qcurve" smooth="yes"/>
      <point x="492.0" y="202.1044776119403"/>
      <point x="455.0149253731343" y="253.0"/>
    </contour>
  </outline>
</glyph>
<glyph name="I.ss01" format="2">
  <advance width="492"/>
  <note>
I
</note>
  <anchor x="246" y="0" name="bottom"/>
  <anchor x="300" y="10" name="ogonek"/>
  <anchor x="246" y="700" name="top"/>
  <anchor x="192" y="700" name="topleft"/>
  <outline>
    <contour>
      <point x="300" y="700" type="qcurve"/>
      <point x="300" y="0" type="line"/>
      <point x="192" y="0" type="line"/>
      <point x="192" y="700" type="line"/>
      <point x="192.7462686567164" y="700.0"/>
      <point x="299" y="700.0"/>
    </contour>
  </outline>
</glyph>
<glyph name="Iogonek.ss01" format="2">
  <advance width="509"/>
  <note>
Iogonek
</note>
  <anchor x="246" y="0" name="bottom"/>
  <anchor x="300" y="10" name="ogonek"/>
  <anchor x="246" y="700" name="top"/>
  <anchor x="192" y="700" name="topleft"/>
  <outline>
    <contour>
      <point x="300" y="700" type="line"/>
      <point x="300" y="0" type="line"/>
      <point x="192" y="0" type="line"/>
      <point x="192" y="700" type="line"/>
    </contour>
    <contour>
      <point x="210" y="-200" type="qcurve" smooth="yes"/>
      <point x="169" y="-200"/>
      <point x="101" y="-141"/>
      <point x="101" y="-97" type="qcurve" smooth="yes"/>
      <point x="101" y="-35"/>
      <point x="205" y="37"/>
      <point x="256" y="51" type="qcurve"/>
      <point x="300" y="44" type="line"/>
      <point x="300" y="0" type="line"/>
      <point x="260" y="-9"/>
      <point x="192" y="-58"/>
      <point x="192" y="-87" type="qcurve" smooth="yes"/>
      <point x="192" y="-103"/>
      <point x="210" y="-123"/>
      <point x="226" y="-123" type="qcurve" smooth="yes"/>
      <point x="239" y="-123"/>
      <point x="257" y="-108"/>
      <point x="263" y="-98" type="qcurve"/>
      <point x="319" y="-138" type="line"/>
      <point x="311" y="-159"/>
      <point x="250" y="-200"/>
    </contour>
  </outline>
</glyph>
<glyph name="J.ss01" format="2">
  <advance width="881"/>
  <note>
J
</note>
  <anchor x="441" y="0" name="bottom"/>
  <anchor x="632" y="700" name="top"/>
  <outline>
    <contour>
      <point x="401" y="-10" type="qcurve"/>
      <point x="273.3880597014926" y="-10.0"/>
      <point x="140.67164179104478" y="118.64179104477611"/>
      <point x="125" y="147" type="qcurve"/>
      <point x="197" y="223" type="line"/>
      <point x="234.3134328358209" y="173.0"/>
      <point x="321.8955223880597" y="90.0"/>
      <point x="401" y="90" type="qcurve" smooth="yes"/>
      <point x="489.05970149253733" y="90.0"/>
      <point x="591.0" y="203.1492537313433"/>
      <point x="591" y="283" type="qcurve"/>
      <point x="591" y="700" type="line"/>
      <point x="699" y="700" type="line"/>
      <point x="699" y="273" type="line"/>
      <point x="699.0" y="164.7910447761194"/>
      <point x="543.5373134328358" y="-10.0"/>
    </contour>
  </outline>
</glyph>
<glyph name="a.ss01" format="2">
  <advance width="1017"/>
  <note>
a
</note>
  <guideline x="489" y="908" angle="90.0" name="center" identifier="P3VLENJBmF"/>
  <anchor x="509" y="0" name="bottom"/>
  <anchor x="797" y="10" name="ogonek"/>
  <anchor x="503" y="525" name="top"/>
  <outline>
    <contour>
      <point x="481" y="536" type="qcurve" smooth="yes"/>
      <point x="628" y="536"/>
      <point x="807" y="431"/>
      <point x="807" y="304" type="qcurve"/>
      <point x="807" y="0" type="line"/>
      <point x="714" y="0" type="line"/>
      <point x="714" y="282" type="line"/>
      <point x="714" y="366"/>
      <point x="591" y="442"/>
      <point x="479" y="442" type="qcurve" smooth="yes"/>
      <point x="424" y="442"/>
      <point x="302" y="411"/>
      <point x="255" y="374" type="qcurve"/>
      <point x="198" y="445" type="line"/>
      <point x="252" y="483"/>
      <point x="394" y="536"/>
    </contour>
    <contour>
      <point x="515" y="319" type="qcurve" smooth="yes"/>
      <point x="761" y="319" type="line"/>
      <point x="752" y="237" type="line"/>
      <point x="502" y="237" type="line" smooth="yes"/>
      <point x="381" y="237"/>
      <point x="276" y="185"/>
      <point x="276" y="151" type="qcurve"/>
      <point x="276" y="113"/>
      <point x="374" y="78"/>
      <point x="441" y="78" type="qcurve"/>
      <point x="529" y="78"/>
      <point x="691" y="137"/>
      <point x="727" y="174" type="qcurve"/>
      <point x="751" y="107" type="line"/>
      <point x="711" y="65"/>
      <point x="534" y="-10"/>
      <point x="437" y="-10" type="qcurve"/>
      <point x="338" y="-10"/>
      <point x="179" y="67"/>
      <point x="179" y="149" type="qcurve"/>
      <point x="179" y="227"/>
      <point x="339" y="319"/>
    </contour>
  </outline>
</glyph>
<glyph name="aogonek.ss01" format="2">
  <advance width="984"/>
  <note>
aogonek
</note>
  <outline>
    <contour>
      <point x="378" y="-10" type="qcurve"/>
      <point x="279.4925373134329" y="-10.0"/>
      <point x="120.0" y="66.91044776119404"/>
      <point x="120" y="149" type="qcurve"/>
      <point x="120.0" y="226.61194029850745"/>
      <point x="279.8805970149254" y="319.0"/>
      <point x="456" y="319" type="qcurve" smooth="yes"/>
      <point x="702" y="319" type="line"/>
      <point x="693" y="237" type="line"/>
      <point x="443" y="237" type="line" smooth="yes"/>
      <point x="322.1044776119403" y="237.0"/>
      <point x="217.0" y="185.32835820895522"/>
      <point x="217" y="151" type="qcurve"/>
      <point x="217.0" y="112.9402985074627"/>
      <point x="314.8358208955224" y="78.0"/>
      <point x="382" y="78" type="qcurve"/>
      <point x="470.05970149253733" y="78.0"/>
      <point x="632.179104477612" y="137.43283582089552"/>
      <point x="668" y="174" type="qcurve"/>
      <point x="692" y="107" type="line"/>
      <point x="651.7014925373135" y="65.2089552238806"/>
      <point x="475.0149253731343" y="-10.0"/>
    </contour>
    <contour>
      <point x="660" y="-221" type="qcurve" smooth="yes"/>
      <point x="610.0" y="-221.0"/>
      <point x="540.0" y="-162"/>
      <point x="540" y="-114" type="qcurve" smooth="yes"/>
      <point x="540.0" y="-61"/>
      <point x="655" y="21"/>
      <point x="715" y="52" type="qcurve"/>
      <point x="742" y="0" type="line"/>
      <point x="655" y="0" type="line"/>
      <point x="655" y="282" type="line"/>
      <point x="655.0" y="366"/>
      <point x="532" y="442.0"/>
      <point x="420" y="442" type="qcurve" smooth="yes"/>
      <point x="365" y="442.0"/>
      <point x="243" y="411"/>
      <point x="196" y="374" type="qcurve"/>
      <point x="139" y="445" type="line"/>
      <point x="193" y="483"/>
      <point x="335" y="536.0"/>
      <point x="422" y="536" type="qcurve" smooth="yes"/>
      <point x="569" y="536.0"/>
      <point x="748.0" y="431"/>
      <point x="748" y="304" type="qcurve"/>
      <point x="748" y="0" type="line"/>
      <point x="707" y="-19"/>
      <point x="633.0" y="-72"/>
      <point x="633" y="-100" type="qcurve" smooth="yes"/>
      <point x="633.0" y="-117"/>
      <point x="660" y="-144.0"/>
      <point x="680" y="-144" type="qcurve" smooth="yes"/>
      <point x="695" y="-144.0"/>
      <point x="729" y="-129"/>
      <point x="745" y="-118" type="qcurve"/>
      <point x="784" y="-177" type="line"/>
      <point x="759" y="-194"/>
      <point x="696" y="-221.0"/>
    </contour>
  </outline>
</glyph>
<glyph name="behDotless-ar.init.wide" format="2">
  <advance width="593"/>
  <anchor x="277" y="0" name="bottom"/>
  <anchor x="270" y="438" name="top"/>
  <outline>
    <contour>
      <point x="0" y="102" type="line"/>
      <point x="298" y="102" type="line"/>
      <point x="298.0" y="169.16417910447763"/>
      <point x="251.50746268656715" y="284.05970149253733"/>
      <point x="203" y="346" type="qcurve"/>
      <point x="294" y="438" type="line"/>
      <point x="352.2089552238806" y="343.22388059701495"/>
      <point x="409.0149253731343" y="131.34328358208955"/>
      <point x="362" y="0" type="qcurve"/>
      <point x="0" y="0" type="line"/>
    </contour>
  </outline>
</glyph>
<glyph name="five.dnom" format="2">
  <advance width="356"/>
  <outline>
    <contour>
      <point x="306" y="121" type="qcurve"/>
      <point x="306.0" y="60"/>
      <point x="218.43283582089552" y="-9.0"/>
      <point x="155" y="-9" type="qcurve"/>
      <point x="128.13432835820896" y="-9.0"/>
      <point x="67.91044776119404" y="13.82089552238806"/>
      <point x="50" y="28" type="qcurve"/>
      <point x="87" y="86" type="line"/>
      <point x="99.68656716417911" y="74.80597014925374"/>
      <point x="135.86567164179104" y="59.0"/>
      <point x="159" y="59" type="qcurve"/>
      <point x="188.8507462686567" y="59.0"/>
      <point x="226.0" y="88.6268656716418"/>
      <point x="226" y="114" type="qcurve"/>
      <point x="226.0" y="134.1492537313433"/>
      <point x="195.61194029850745" y="166.0"/>
      <point x="168" y="166" type="qcurve"/>
      <point x="141.13432835820896" y="166.0"/>
      <point x="110.68656716417911" y="150.2089552238806"/>
      <point x="98" y="142" type="qcurve"/>
      <point x="63" y="182" type="line"/>
      <point x="86" y="345" type="line"/>
      <point x="289" y="345" type="line"/>
      <point x="289" y="276" type="line"/>
      <point x="125" y="276" type="line"/>
      <point x="152" y="297" type="line"/>
      <point x="137" y="172" type="line"/>
      <point x="106" y="189" type="line"/>
      <point x="120.92537313432835" y="211.38805970149252"/>
      <point x="166.16417910447763" y="235.0"/>
      <point x="199" y="235" type="qcurve"/>
      <point x="241.53731343283582" y="235.0"/>
      <point x="306.0" y="171.0"/>
    </contour>
  </outline>
</glyph>
<glyph name="g.ss01" format="2">
  <advance width="1003"/>
  <outline>
    <contour>
      <point x="242" y="348" type="qcurve"/>
      <point x="242" y="424"/>
      <point x="391" y="531"/>
      <point x="497" y="531" type="qcurve"/>
      <point x="524" y="531"/>
      <point x="578" y="526"/>
      <point x="642" y="512" type="qcurve"/>
      <point x="544" y="521" type="line"/>
      <point x="798" y="521" type="line"/>
      <point x="798" y="437" type="line"/>
      <point x="697" y="437" type="line"/>
      <point x="712" y="463" type="line"/>
      <point x="739" y="417"/>
      <point x="752" y="372"/>
      <point x="752" y="348" type="qcurve"/>
      <point x="752" y="262"/>
      <point x="608" y="162"/>
      <point x="497" y="162" type="qcurve" smooth="yes"/>
      <point x="386" y="162" type="line"/>
      <point x="365" y="162"/>
      <point x="341" y="143"/>
      <point x="341" y="128" type="qcurve"/>
      <point x="341" y="110"/>
      <point x="365" y="90"/>
      <point x="386" y="90" type="qcurve"/>
      <point x="510" y="90" type="line" smooth="yes"/>
      <point x="660" y="90"/>
      <point x="799" y="13"/>
      <point x="799" y="-75" type="qcurve" smooth="yes"/>
      <point x="799" y="-153"/>
      <point x="654" y="-240"/>
      <point x="510" y="-240" type="qcurve" smooth="yes"/>
      <point x="360" y="-240"/>
      <point x="221" y="-154"/>
      <point x="221" y="-75" type="qcurve" smooth="yes"/>
      <point x="221" y="-32"/>
      <point x="265" y="27"/>
      <point x="321" y="62" type="qcurve"/>
      <point x="313" y="30" type="line"/>
      <point x="262" y="60"/>
      <point x="230" y="103"/>
      <point x="230" y="129" type="qcurve"/>
      <point x="230" y="157"/>
      <point x="270" y="202"/>
      <point x="331" y="226" type="qcurve"/>
      <point x="345" y="195" type="line"/>
      <point x="292" y="221"/>
      <point x="242" y="301"/>
    </contour>
    <contour>
      <point x="497" y="441" type="qcurve"/>
      <point x="433" y="441"/>
      <point x="345" y="387"/>
      <point x="345" y="348" type="qcurve"/>
      <point x="345" y="306"/>
      <point x="433" y="252"/>
      <point x="497" y="252" type="qcurve" smooth="yes"/>
      <point x="561" y="252"/>
      <point x="649" y="305"/>
      <point x="649" y="348" type="qcurve"/>
      <point x="649" y="387"/>
      <point x="561" y="441"/>
    </contour>
    <contour>
      <point x="509" y="-150" type="qcurve" smooth="yes"/>
      <point x="595" y="-150"/>
      <point x="696" y="-108"/>
      <point x="696" y="-75" type="qcurve" smooth="yes"/>
      <point x="696" y="-41"/>
      <point x="595" y="0"/>
      <point x="509" y="0" type="qcurve" smooth="yes"/>
      <point x="427" y="0"/>
      <point x="324" y="-41"/>
      <point x="324" y="-75" type="qcurve" smooth="yes"/>
      <point x="324" y="-108"/>
      <point x="427" y="-150"/>
    </contour>
  </outline>
</glyph>
<glyph name="hookabovecomb.case" format="2">
  <anchor x="171" y="534" name="_top"/>
  <anchor x="149" y="760" name="top"/>
  <outline>
    <contour>
      <point x="83" y="666" type="qcurve"/>
      <point x="50" y="714" type="line"/>
      <point x="72" y="736"/>
      <point x="116" y="760"/>
      <point x="155" y="760" type="qcurve"/>
      <point x="194" y="760"/>
      <point x="247" y="715"/>
      <point x="247" y="688" type="qcurve"/>
      <point x="247" y="668"/>
      <point x="235" y="638"/>
      <point x="223" y="621" type="qcurve"/>
      <point x="216" y="611"/>
      <point x="204" y="586"/>
      <point x="203" y="578" type="qcurve"/>
      <point x="135" y="578" type="line"/>
      <point x="135" y="591"/>
      <point x="143" y="617"/>
      <point x="151" y="627" type="qcurve" smooth="yes"/>
      <point x="169" y="651"/>
      <point x="176" y="665"/>
      <point x="176" y="674" type="qcurve"/>
      <point x="176" y="686"/>
      <point x="160" y="699"/>
      <point x="143" y="699" type="qcurve"/>
      <point x="128" y="699"/>
      <point x="101" y="684"/>
    </contour>
  </outline>
</glyph>
<glyph name="hungarumlaut.case" format="2">
  <advance width="600"/>
  <anchor x="186" y="525" name="_top"/>
  <outline>
    <contour>
      <point x="179" y="676" type="line"/>
      <point x="5" y="582" type="line"/>
      <point x="-29" y="633" type="line"/>
      <point x="114" y="758" type="line"/>
    </contour>
    <contour>
      <point x="378" y="676" type="line"/>
      <point x="204" y="582" type="line"/>
      <point x="170" y="633" type="line"/>
      <point x="313" y="758" type="line"/>
    </contour>
  </outline>
</glyph>
<glyph name="qafDotless-ar.fina" format="2">
  <advance width="1129"/>
  <outline>
    <contour>
      <point x="831" y="84" type="qcurve" smooth="yes"/>
      <point x="831.0" y="153.40298507462686"/>
      <point x="741.3582089552239" y="285.0"/>
      <point x="663" y="285" type="qcurve" smooth="yes"/>
      <point x="595.0895522388059" y="285.0"/>
      <point x="515.0" y="214.0597014925373"/>
      <point x="515" y="176" type="qcurve" smooth="yes"/>
      <point x="515.0" y="143.16417910447763"/>
      <point x="567.6268656716418" y="102.0"/>
      <point x="643" y="102" type="qcurve" smooth="yes"/>
      <point x="1129" y="102" type="line"/>
      <point x="1129" y="0" type="line"/>
      <point x="633" y="0" type="line" smooth="yes"/>
      <point x="517.3283582089553" y="0.0"/>
      <point x="420.0" y="92.56716417910448"/>
      <point x="420" y="156" type="qcurve" smooth="yes"/>
      <point x="420.0" y="259.7313432835821"/>
      <point x="569.0" y="387.0"/>
      <point x="669" y="387" type="qcurve" smooth="yes"/>
      <point x="780.1940298507462" y="387.0"/>
      <point x="920.7611940298508" y="227.3731343283582"/>
      <point x="923" y="102" type="qcurve" smooth="yes"/>
      <point x="925.2388059701492" y="-47.25373134328356"/>
      <point x="691.1791044776119" y="-230.0"/>
      <point x="477" y="-230" type="qcurve" smooth="yes"/>
      <point x="316.5522388059702" y="-230.0"/>
      <point x="87.0" y="-103.11940298507461"/>
      <point x="87" y="23" type="qcurve" smooth="yes"/>
      <point x="87.0" y="56.582089552238806"/>
      <point x="110.92537313432837" y="179.85074626865674"/>
      <point x="146" y="250" type="qcurve"/>
      <point x="90" y="228" type="line"/>
      <point x="267" y="169" type="line"/>
      <point x="234" y="223" type="line"/>
      <point x="210.86567164179104" y="168.52238805970148"/>
      <point x="188.0" y="72.32835820895522"/>
      <point x="188" y="38" type="qcurve" smooth="yes"/>
      <point x="188.0" y="-44.089552238805965"/>
      <point x="360.3880597014926" y="-128.0"/>
      <point x="488" y="-128" type="qcurve" smooth="yes"/>
      <point x="633.5223880597015" y="-128.0"/>
      <point x="831.0" y="-29.43283582089552"/>
    </contour>
  </outline>
</glyph>
